<svg xmlns="http://www.w3.org/2000/svg" xmlns:xlink="http://www.w3.org/1999/xlink" width="66" zoomAndPan="magnify" viewBox="0 0 49.5 49.499998" height="66" preserveAspectRatio="xMidYMid meet" version="1.0"><defs><clipPath id="837e24b806"><path d="M 1.058594 10.4375 L 43.464844 10.4375 L 43.464844 38.652344 L 1.058594 38.652344 Z M 1.058594 10.4375 " clip-rule="nonzero"/></clipPath><clipPath id="b026d36056"><path d="M 39.242188 32.582031 C 39.574219 32.375 39.882812 32.15625 40.167969 31.910156 C 40.449219 31.660156 40.707031 31.394531 40.9375 31.113281 C 41.757812 30.105469 42.203125 28.640625 41.894531 27.351562 C 41.828125 27.042969 41.714844 26.746094 41.5625 26.46875 C 41.414062 26.191406 41.234375 25.929688 41.015625 25.695312 C 40.167969 24.746094 38.898438 24.207031 37.59375 24.121094 C 36.277344 24.011719 34.925781 24.316406 33.667969 24.871094 C 33.507812 24.933594 33.351562 25.015625 33.195312 25.089844 C 33.125 25.125 33.027344 25.167969 32.972656 25.199219 L 32.722656 25.332031 C 32.558594 25.425781 32.425781 25.5 32.269531 25.59375 C 32.117188 25.683594 31.96875 25.777344 31.820312 25.871094 C 31.222656 26.253906 30.648438 26.683594 30.085938 27.136719 C 28.960938 28.046875 27.90625 29.082031 26.84375 30.160156 C 25.78125 31.234375 24.714844 32.355469 23.554688 33.449219 C 22.394531 34.53125 21.128906 35.585938 19.6875 36.46875 C 18.253906 37.355469 16.617188 38.023438 14.917969 38.363281 C 14.066406 38.53125 13.203125 38.628906 12.347656 38.644531 L 12.1875 38.648438 L 12.066406 38.648438 L 11.710938 38.644531 C 11.625 38.644531 11.488281 38.632812 11.371094 38.625 C 11.253906 38.617188 11.128906 38.613281 11.015625 38.601562 C 10.566406 38.554688 10.121094 38.492188 9.679688 38.394531 C 7.917969 38.015625 6.234375 37.207031 4.855469 36.011719 C 3.472656 34.832031 2.390625 33.285156 1.761719 31.570312 C 1.4375 30.714844 1.242188 29.816406 1.148438 28.917969 L 1.125 28.703125 L 1.117188 28.558594 L 1.101562 28.273438 L 1.097656 28.199219 L 1.09375 28.109375 L 1.089844 27.925781 L 1.089844 27.5625 C 1.101562 27.109375 1.132812 26.65625 1.199219 26.207031 C 1.328125 25.308594 1.558594 24.421875 1.910156 23.585938 C 2.257812 22.753906 2.710938 21.964844 3.25 21.242188 C 3.789062 20.519531 4.417969 19.871094 5.113281 19.308594 C 5.808594 18.742188 6.582031 18.28125 7.390625 17.910156 C 8.203125 17.539062 9.058594 17.277344 9.933594 17.125 C 10.148438 17.082031 10.371094 17.054688 10.589844 17.035156 C 10.808594 17.003906 11.03125 16.996094 11.25 16.984375 C 11.46875 16.96875 11.691406 16.976562 11.910156 16.972656 L 12.03125 16.976562 L 12.101562 16.980469 L 12.246094 16.988281 L 12.53125 17.003906 L 11.242188 17.78125 C 11.808594 16.71875 12.5 15.730469 13.308594 14.855469 C 14.117188 13.980469 15.027344 13.203125 16.019531 12.566406 C 17.015625 11.933594 18.089844 11.429688 19.199219 11.066406 C 20.3125 10.710938 21.46875 10.511719 22.621094 10.453125 C 23.199219 10.425781 23.777344 10.429688 24.34375 10.488281 L 24.75 10.523438 L 25.191406 10.585938 C 25.484375 10.621094 25.761719 10.679688 26.042969 10.738281 C 26.601562 10.855469 27.144531 11.019531 27.679688 11.207031 C 27.949219 11.296875 28.207031 11.414062 28.46875 11.519531 C 28.726562 11.632812 28.980469 11.761719 29.230469 11.882812 C 29.476562 12.023438 29.726562 12.152344 29.964844 12.300781 C 30.199219 12.453125 30.441406 12.589844 30.667969 12.757812 C 30.890625 12.921875 31.121094 13.078125 31.335938 13.257812 L 31.660156 13.523438 C 31.765625 13.609375 31.863281 13.707031 31.96875 13.800781 C 32.175781 13.984375 32.367188 14.179688 32.558594 14.382812 C 32.753906 14.578125 32.925781 14.792969 33.105469 15 C 33.289062 15.203125 33.445312 15.429688 33.613281 15.644531 C 33.773438 15.867188 33.917969 16.097656 34.070312 16.324219 C 33.695312 15.929688 33.3125 15.546875 32.90625 15.199219 C 32.699219 15.027344 32.5 14.847656 32.28125 14.691406 L 31.960938 14.453125 C 31.851562 14.375 31.738281 14.304688 31.628906 14.230469 C 31.519531 14.15625 31.414062 14.082031 31.300781 14.011719 L 30.960938 13.804688 C 30.738281 13.664062 30.5 13.550781 30.269531 13.425781 C 30.039062 13.300781 29.792969 13.203125 29.558594 13.089844 C 29.320312 12.988281 29.070312 12.902344 28.832031 12.804688 L 28.089844 12.566406 C 27.839844 12.503906 27.59375 12.425781 27.339844 12.375 C 26.835938 12.265625 26.332031 12.179688 25.820312 12.136719 C 25.566406 12.113281 25.3125 12.085938 25.070312 12.085938 L 24.699219 12.074219 L 24.296875 12.082031 C 23.789062 12.085938 23.285156 12.144531 22.789062 12.214844 C 21.792969 12.363281 20.824219 12.636719 19.910156 13.027344 C 18.996094 13.414062 18.136719 13.914062 17.355469 14.511719 C 16.570312 15.101562 15.867188 15.792969 15.261719 16.558594 C 14.660156 17.320312 14.140625 18.152344 13.742188 19.03125 L 13.390625 19.808594 L 11.953125 19.808594 C 12.023438 19.8125 11.964844 19.808594 11.976562 19.8125 L 11.929688 19.8125 C 11.769531 19.828125 11.605469 19.828125 11.445312 19.851562 C 11.285156 19.871094 11.125 19.886719 10.964844 19.917969 C 10.808594 19.941406 10.648438 19.972656 10.492188 20.011719 C 9.867188 20.148438 9.257812 20.367188 8.691406 20.664062 C 7.554688 21.246094 6.570312 22.113281 5.84375 23.148438 C 5.480469 23.671875 5.183594 24.234375 4.960938 24.820312 C 4.742188 25.414062 4.585938 26.023438 4.511719 26.648438 C 4.472656 26.960938 4.460938 27.277344 4.453125 27.589844 L 4.464844 27.90625 L 4.464844 27.960938 L 4.46875 28.035156 L 4.492188 28.320312 L 4.503906 28.464844 C 4.507812 28.511719 4.5 28.421875 4.503906 28.433594 L 4.503906 28.449219 L 4.507812 28.480469 L 4.515625 28.539062 C 4.59375 29.164062 4.746094 29.773438 4.964844 30.355469 C 5.402344 31.523438 6.144531 32.566406 7.09375 33.371094 C 8.039062 34.175781 9.183594 34.753906 10.410156 35.023438 C 10.714844 35.09375 11.027344 35.136719 11.339844 35.171875 C 11.414062 35.179688 11.480469 35.183594 11.554688 35.1875 C 11.628906 35.195312 11.679688 35.203125 11.789062 35.203125 L 12.074219 35.210938 L 12.144531 35.210938 C 12.074219 35.210938 12.132812 35.210938 12.121094 35.210938 L 12.296875 35.210938 C 12.96875 35.210938 13.628906 35.148438 14.28125 35.03125 C 15.585938 34.800781 16.832031 34.308594 18.027344 33.628906 C 19.21875 32.949219 20.355469 32.074219 21.464844 31.105469 C 22.578125 30.140625 23.671875 29.085938 24.8125 28.03125 C 25.957031 26.980469 27.152344 25.933594 28.464844 24.984375 C 29.121094 24.511719 29.8125 24.074219 30.53125 23.675781 C 30.710938 23.578125 30.894531 23.480469 31.078125 23.386719 C 31.257812 23.296875 31.464844 23.195312 31.644531 23.113281 L 31.90625 22.996094 C 32.023438 22.941406 32.105469 22.910156 32.207031 22.867188 C 32.402344 22.789062 32.589844 22.703125 32.792969 22.636719 C 34.363281 22.058594 36.109375 21.78125 37.839844 22.042969 C 39.558594 22.289062 41.261719 23.15625 42.355469 24.601562 C 42.628906 24.960938 42.855469 25.355469 43.03125 25.773438 C 43.210938 26.1875 43.335938 26.628906 43.394531 27.078125 C 43.460938 27.523438 43.46875 27.980469 43.40625 28.425781 C 43.390625 28.636719 43.324219 28.894531 43.277344 29.105469 L 43.191406 29.378906 L 43.160156 29.476562 L 43.125 29.550781 L 43.054688 29.703125 C 42.675781 30.511719 42.078125 31.152344 41.414062 31.628906 C 41.085938 31.871094 40.730469 32.070312 40.363281 32.226562 C 40 32.382812 39.621094 32.507812 39.242188 32.582031 Z M 39.242188 32.582031 " clip-rule="nonzero"/></clipPath><clipPath id="4f34b35072"><path d="M 39.242188 32.582031 C 39.574219 32.375 39.882812 32.15625 40.167969 31.910156 C 40.449219 31.660156 40.707031 31.394531 40.9375 31.113281 C 41.757812 30.105469 42.203125 28.640625 41.894531 27.351562 C 41.828125 27.042969 41.714844 26.746094 41.5625 26.46875 C 41.414062 26.191406 41.234375 25.929688 41.015625 25.695312 C 40.167969 24.746094 38.898438 24.207031 37.59375 24.121094 C 36.277344 24.011719 34.925781 24.316406 33.667969 24.871094 C 33.507812 24.933594 33.351562 25.015625 33.195312 25.089844 C 33.125 25.125 33.027344 25.167969 32.972656 25.199219 L 32.722656 25.332031 C 32.558594 25.425781 32.425781 25.5 32.269531 25.59375 C 32.117188 25.683594 31.96875 25.777344 31.820312 25.871094 C 31.222656 26.253906 30.648438 26.683594 30.085938 27.136719 C 28.960938 28.046875 27.90625 29.082031 26.84375 30.160156 C 25.78125 31.234375 24.714844 32.355469 23.554688 33.449219 C 22.394531 34.53125 21.128906 35.585938 19.6875 36.46875 C 18.253906 37.355469 16.617188 38.023438 14.917969 38.363281 C 14.066406 38.53125 13.203125 38.628906 12.347656 38.644531 L 12.1875 38.648438 L 12.066406 38.648438 L 11.710938 38.644531 C 11.625 38.644531 11.488281 38.632812 11.371094 38.625 C 11.253906 38.617188 11.128906 38.613281 11.015625 38.601562 C 10.566406 38.554688 10.121094 38.492188 9.679688 38.394531 C 7.917969 38.015625 6.234375 37.207031 4.855469 36.011719 C 3.472656 34.832031 2.390625 33.285156 1.761719 31.570312 C 1.4375 30.714844 1.242188 29.816406 1.148438 28.917969 L 1.125 28.703125 L 1.117188 28.558594 L 1.101562 28.273438 L 1.097656 28.199219 L 1.09375 28.109375 L 1.089844 27.925781 L 1.089844 27.5625 C 1.101562 27.109375 1.132812 26.65625 1.199219 26.207031 C 1.328125 25.308594 1.558594 24.421875 1.910156 23.585938 C 2.257812 22.753906 2.710938 21.964844 3.25 21.242188 C 3.789062 20.519531 4.417969 19.871094 5.113281 19.308594 C 5.808594 18.742188 6.582031 18.28125 7.390625 17.910156 C 8.203125 17.539062 9.058594 17.277344 9.933594 17.125 C 10.148438 17.082031 10.371094 17.054688 10.589844 17.035156 C 10.808594 17.003906 11.03125 16.996094 11.25 16.984375 C 11.46875 16.96875 11.691406 16.976562 11.910156 16.972656 L 12.03125 16.976562 L 12.101562 16.980469 L 12.246094 16.988281 L 12.53125 17.003906 L 11.242188 17.78125 C 11.808594 16.71875 12.5 15.730469 13.308594 14.855469 C 14.117188 13.980469 15.027344 13.203125 16.019531 12.566406 C 17.015625 11.933594 18.089844 11.429688 19.199219 11.066406 C 20.3125 10.710938 21.46875 10.511719 22.621094 10.453125 C 23.199219 10.425781 23.777344 10.429688 24.34375 10.488281 L 24.75 10.523438 L 25.191406 10.585938 C 25.484375 10.621094 25.761719 10.679688 26.042969 10.738281 C 26.601562 10.855469 27.144531 11.019531 27.679688 11.207031 C 27.949219 11.296875 28.207031 11.414062 28.46875 11.519531 C 28.726562 11.632812 28.980469 11.761719 29.230469 11.882812 C 29.476562 12.023438 29.726562 12.152344 29.964844 12.300781 C 30.199219 12.453125 30.441406 12.589844 30.667969 12.757812 C 30.890625 12.921875 31.121094 13.078125 31.335938 13.257812 L 31.660156 13.523438 C 31.765625 13.609375 31.863281 13.707031 31.96875 13.800781 C 32.175781 13.984375 32.367188 14.179688 32.558594 14.382812 C 32.753906 14.578125 32.925781 14.792969 33.105469 15 C 33.289062 15.203125 33.445312 15.429688 33.613281 15.644531 C 33.773438 15.867188 33.917969 16.097656 34.070312 16.324219 C 33.695312 15.929688 33.3125 15.546875 32.90625 15.199219 C 32.699219 15.027344 32.5 14.847656 32.28125 14.691406 L 31.960938 14.453125 C 31.851562 14.375 31.738281 14.304688 31.628906 14.230469 C 31.519531 14.15625 31.414062 14.082031 31.300781 14.011719 L 30.960938 13.804688 C 30.738281 13.664062 30.5 13.550781 30.269531 13.425781 C 30.039062 13.300781 29.792969 13.203125 29.558594 13.089844 C 29.320312 12.988281 29.070312 12.902344 28.832031 12.804688 L 28.089844 12.566406 C 27.839844 12.503906 27.59375 12.425781 27.339844 12.375 C 26.835938 12.265625 26.332031 12.179688 25.820312 12.136719 C 25.566406 12.113281 25.3125 12.085938 25.070312 12.085938 L 24.699219 12.074219 L 24.296875 12.082031 C 23.789062 12.085938 23.285156 12.144531 22.789062 12.214844 C 21.792969 12.363281 20.824219 12.636719 19.910156 13.027344 C 18.996094 13.414062 18.136719 13.914062 17.355469 14.511719 C 16.570312 15.101562 15.867188 15.792969 15.261719 16.558594 C 14.660156 17.320312 14.140625 18.152344 13.742188 19.03125 L 13.390625 19.808594 L 11.953125 19.808594 C 12.023438 19.8125 11.964844 19.808594 11.976562 19.8125 L 11.929688 19.8125 C 11.769531 19.828125 11.605469 19.828125 11.445312 19.851562 C 11.285156 19.871094 11.125 19.886719 10.964844 19.917969 C 10.808594 19.941406 10.648438 19.972656 10.492188 20.011719 C 9.867188 20.148438 9.257812 20.367188 8.691406 20.664062 C 7.554688 21.246094 6.570312 22.113281 5.84375 23.148438 C 5.480469 23.671875 5.183594 24.234375 4.960938 24.820312 C 4.742188 25.414062 4.585938 26.023438 4.511719 26.648438 C 4.472656 26.960938 4.460938 27.277344 4.453125 27.589844 L 4.464844 27.90625 L 4.464844 27.960938 L 4.46875 28.035156 L 4.492188 28.320312 L 4.503906 28.464844 C 4.507812 28.511719 4.5 28.421875 4.503906 28.433594 L 4.503906 28.449219 L 4.507812 28.480469 L 4.515625 28.539062 C 4.59375 29.164062 4.746094 29.773438 4.964844 30.355469 C 5.402344 31.523438 6.144531 32.566406 7.09375 33.371094 C 8.039062 34.175781 9.183594 34.753906 10.410156 35.023438 C 10.714844 35.09375 11.027344 35.136719 11.339844 35.171875 C 11.414062 35.179688 11.480469 35.183594 11.554688 35.1875 C 11.628906 35.195312 11.679688 35.203125 11.789062 35.203125 L 12.074219 35.210938 L 12.144531 35.210938 C 12.074219 35.210938 12.132812 35.210938 12.121094 35.210938 L 12.296875 35.210938 C 12.96875 35.210938 13.628906 35.148438 14.28125 35.03125 C 15.585938 34.800781 16.832031 34.308594 18.027344 33.628906 C 19.21875 32.949219 20.355469 32.074219 21.464844 31.105469 C 22.578125 30.140625 23.671875 29.085938 24.8125 28.03125 C 25.957031 26.980469 27.152344 25.933594 28.464844 24.984375 C 29.121094 24.511719 29.8125 24.074219 30.53125 23.675781 C 30.710938 23.578125 30.894531 23.480469 31.078125 23.386719 C 31.257812 23.296875 31.464844 23.195312 31.644531 23.113281 L 31.90625 22.996094 C 32.023438 22.941406 32.105469 22.910156 32.207031 22.867188 C 32.402344 22.789062 32.589844 22.703125 32.792969 22.636719 C 34.363281 22.058594 36.109375 21.78125 37.839844 22.042969 C 39.558594 22.289062 41.261719 23.15625 42.355469 24.601562 C 42.628906 24.960938 42.855469 25.355469 43.03125 25.773438 C 43.210938 26.1875 43.335938 26.628906 43.394531 27.078125 C 43.460938 27.523438 43.46875 27.980469 43.40625 28.425781 C 43.390625 28.636719 43.324219 28.894531 43.277344 29.105469 L 43.191406 29.378906 L 43.160156 29.476562 L 43.125 29.550781 L 43.054688 29.703125 C 42.675781 30.511719 42.078125 31.152344 41.414062 31.628906 C 41.085938 31.871094 40.730469 32.070312 40.363281 32.226562 C 40 32.382812 39.621094 32.507812 39.242188 32.582031 " clip-rule="nonzero"/></clipPath><clipPath id="1309f4c41a"><path d="M 56.324219 18.882812 L 13.785156 -9.09375 L -11.769531 30.195312 L 30.773438 58.171875 Z M 56.324219 18.882812 " clip-rule="nonzero"/></clipPath><radialGradient gradientTransform="matrix(-0.545816, 0.839226, -0.834603, -0.54884, 31.49749, 9.169607)" gradientUnits="userSpaceOnUse" r="38.90659" cx="0" id="cdc8d484da" cy="0" fx="0" fy="0"><stop stop-opacity="1" stop-color="rgb(31.604004%, 67.652893%, 89.7995%)" offset="0"/><stop stop-opacity="1" stop-color="rgb(31.404114%, 67.501831%, 89.608765%)" offset="0.00390625"/><stop stop-opacity="1" stop-color="rgb(31.399536%, 67.312622%, 89.408875%)" offset="0.0078125"/><stop stop-opacity="1" stop-color="rgb(31.217957%, 67.112732%, 89.399719%)" offset="0.0117188"/><stop stop-opacity="1" stop-color="rgb(31.018066%, 66.921997%, 89.222717%)" offset="0.015625"/><stop stop-opacity="1" stop-color="rgb(30.999756%, 66.522217%, 88.999939%)" offset="0.0195312"/><stop stop-opacity="1" stop-color="rgb(30.999756%, 66.281128%, 88.777161%)" offset="0.0234375"/><stop stop-opacity="1" stop-color="rgb(30.999756%, 66.069031%, 88.586426%)" offset="0.0273438"/><stop stop-opacity="1" stop-color="rgb(30.990601%, 65.686035%, 88.386536%)" offset="0.03125"/><stop stop-opacity="1" stop-color="rgb(30.79071%, 65.4953%, 88.198853%)" offset="0.0351562"/><stop stop-opacity="1" stop-color="rgb(30.599976%, 65.296936%, 88.198853%)" offset="0.0390625"/><stop stop-opacity="1" stop-color="rgb(30.599976%, 65.100098%, 88.005066%)" offset="0.0429688"/><stop stop-opacity="1" stop-color="rgb(30.599976%, 64.909363%, 87.805176%)" offset="0.046875"/><stop stop-opacity="1" stop-color="rgb(30.599976%, 64.709473%, 87.799072%)" offset="0.0507812"/><stop stop-opacity="1" stop-color="rgb(30.599976%, 64.518738%, 87.663269%)" offset="0.0546875"/><stop stop-opacity="1" stop-color="rgb(30.4245%, 64.318848%, 87.513733%)" offset="0.0585938"/><stop stop-opacity="1" stop-color="rgb(30.223083%, 64.099121%, 87.478638%)" offset="0.0625"/><stop stop-opacity="1" stop-color="rgb(30.183411%, 63.883972%, 87.278748%)" offset="0.0664062"/><stop stop-opacity="1" stop-color="rgb(29.983521%, 63.673401%, 87.098694%)" offset="0.0703125"/><stop stop-opacity="1" stop-color="rgb(29.798889%, 63.288879%, 87.09259%)" offset="0.0742188"/><stop stop-opacity="1" stop-color="rgb(29.798889%, 63.098145%, 86.8927%)" offset="0.078125"/><stop stop-opacity="1" stop-color="rgb(29.798889%, 62.901306%, 86.698914%)" offset="0.0820312"/><stop stop-opacity="1" stop-color="rgb(29.798889%, 62.557983%, 86.698914%)" offset="0.0859375"/><stop stop-opacity="1" stop-color="rgb(29.611206%, 62.405396%, 86.51123%)" offset="0.0898438"/><stop stop-opacity="1" stop-color="rgb(29.411316%, 62.216187%, 86.31134%)" offset="0.09375"/><stop stop-opacity="1" stop-color="rgb(29.399109%, 62.016296%, 86.299133%)" offset="0.0976562"/><stop stop-opacity="1" stop-color="rgb(29.399109%, 61.799622%, 86.099243%)" offset="0.101562"/><stop stop-opacity="1" stop-color="rgb(29.399109%, 61.579895%, 85.899353%)" offset="0.105469"/><stop stop-opacity="1" stop-color="rgb(29.399109%, 61.380005%, 85.884094%)" offset="0.109375"/><stop stop-opacity="1" stop-color="rgb(29.389954%, 61.18927%, 85.684204%)" offset="0.113281"/><stop stop-opacity="1" stop-color="rgb(29.190063%, 60.98938%, 85.494995%)" offset="0.117188"/><stop stop-opacity="1" stop-color="rgb(28.999329%, 60.798645%, 85.295105%)" offset="0.121094"/><stop stop-opacity="1" stop-color="rgb(28.999329%, 60.603333%, 85.099792%)" offset="0.125"/><stop stop-opacity="1" stop-color="rgb(28.999329%, 60.403442%, 85.099792%)" offset="0.128906"/><stop stop-opacity="1" stop-color="rgb(28.999329%, 60.212708%, 84.913635%)" offset="0.132812"/><stop stop-opacity="1" stop-color="rgb(28.999329%, 60.012817%, 84.712219%)" offset="0.136719"/><stop stop-opacity="1" stop-color="rgb(28.822327%, 59.822083%, 84.698486%)" offset="0.140625"/><stop stop-opacity="1" stop-color="rgb(28.622437%, 59.422302%, 84.498596%)" offset="0.144531"/><stop stop-opacity="1" stop-color="rgb(28.581238%, 59.181213%, 84.281921%)" offset="0.148438"/><stop stop-opacity="1" stop-color="rgb(28.381348%, 58.969116%, 84.082031%)" offset="0.152344"/><stop stop-opacity="1" stop-color="rgb(28.199768%, 58.586121%, 83.898926%)" offset="0.15625"/><stop stop-opacity="1" stop-color="rgb(28.199768%, 58.395386%, 83.898926%)" offset="0.160156"/><stop stop-opacity="1" stop-color="rgb(28.199768%, 58.197021%, 83.898926%)" offset="0.164062"/><stop stop-opacity="1" stop-color="rgb(28.199768%, 58.000183%, 83.705139%)" offset="0.167969"/><stop stop-opacity="1" stop-color="rgb(28.199768%, 57.809448%, 83.505249%)" offset="0.171875"/><stop stop-opacity="1" stop-color="rgb(28.015137%, 57.609558%, 83.499146%)" offset="0.175781"/><stop stop-opacity="1" stop-color="rgb(27.815247%, 57.4646%, 83.319092%)" offset="0.179688"/><stop stop-opacity="1" stop-color="rgb(27.799988%, 57.315063%, 83.119202%)" offset="0.183594"/><stop stop-opacity="1" stop-color="rgb(27.799988%, 57.098389%, 83.078003%)" offset="0.1875"/><stop stop-opacity="1" stop-color="rgb(27.799988%, 56.898499%, 82.878113%)" offset="0.191406"/><stop stop-opacity="1" stop-color="rgb(27.799988%, 56.887817%, 82.69043%)" offset="0.195312"/><stop stop-opacity="1" stop-color="rgb(27.799988%, 56.681824%, 82.540894%)" offset="0.199219"/><stop stop-opacity="1" stop-color="rgb(27.798462%, 56.292725%, 82.398987%)" offset="0.203125"/><stop stop-opacity="1" stop-color="rgb(27.650452%, 56.098938%, 82.398987%)" offset="0.207031"/><stop stop-opacity="1" stop-color="rgb(27.500916%, 55.906677%, 82.206726%)" offset="0.210938"/><stop stop-opacity="1" stop-color="rgb(27.49939%, 55.706787%, 82.006836%)" offset="0.214844"/><stop stop-opacity="1" stop-color="rgb(27.49939%, 55.516052%, 81.816101%)" offset="0.21875"/><stop stop-opacity="1" stop-color="rgb(27.49939%, 55.137634%, 81.616211%)" offset="0.222656"/><stop stop-opacity="1" stop-color="rgb(27.2995%, 54.896545%, 81.599426%)" offset="0.226562"/><stop stop-opacity="1" stop-color="rgb(27.099609%, 54.675293%, 81.57959%)" offset="0.230469"/><stop stop-opacity="1" stop-color="rgb(27.084351%, 54.484558%, 81.3797%)" offset="0.234375"/><stop stop-opacity="1" stop-color="rgb(26.88446%, 54.284668%, 81.199646%)" offset="0.238281"/><stop stop-opacity="1" stop-color="rgb(26.699829%, 54.093933%, 81.195068%)" offset="0.242188"/><stop stop-opacity="1" stop-color="rgb(26.699829%, 53.894043%, 80.995178%)" offset="0.246094"/><stop stop-opacity="1" stop-color="rgb(26.699829%, 53.69873%, 80.799866%)" offset="0.25"/><stop stop-opacity="1" stop-color="rgb(26.699829%, 53.507996%, 80.799866%)" offset="0.253906"/><stop stop-opacity="1" stop-color="rgb(26.699829%, 53.308105%, 80.618286%)" offset="0.257812"/><stop stop-opacity="1" stop-color="rgb(26.699829%, 53.121948%, 80.41687%)" offset="0.265625"/><stop stop-opacity="1" stop-color="rgb(26.498413%, 52.722168%, 80.198669%)" offset="0.269531"/><stop stop-opacity="1" stop-color="rgb(26.298523%, 52.485657%, 79.981995%)" offset="0.273438"/><stop stop-opacity="1" stop-color="rgb(26.298523%, 52.328491%, 79.782104%)" offset="0.277344"/><stop stop-opacity="1" stop-color="rgb(26.295471%, 51.991272%, 79.595947%)" offset="0.285156"/><stop stop-opacity="1" stop-color="rgb(26.097107%, 51.799011%, 79.397583%)" offset="0.289062"/><stop stop-opacity="1" stop-color="rgb(25.900269%, 51.605225%, 79.200745%)" offset="0.292969"/><stop stop-opacity="1" stop-color="rgb(25.898743%, 51.220703%, 79.014587%)" offset="0.296875"/><stop stop-opacity="1" stop-color="rgb(25.718689%, 51.014709%, 78.814697%)" offset="0.304688"/><stop stop-opacity="1" stop-color="rgb(25.518799%, 50.823975%, 78.799438%)" offset="0.308594"/><stop stop-opacity="1" stop-color="rgb(25.498962%, 50.602722%, 78.778076%)" offset="0.3125"/><stop stop-opacity="1" stop-color="rgb(25.498962%, 50.367737%, 78.578186%)" offset="0.316406"/><stop stop-opacity="1" stop-color="rgb(25.498962%, 49.987793%, 78.393555%)" offset="0.324219"/><stop stop-opacity="1" stop-color="rgb(25.498962%, 49.797058%, 78.193665%)" offset="0.328125"/><stop stop-opacity="1" stop-color="rgb(25.498962%, 49.60022%, 77.999878%)" offset="0.332031"/><stop stop-opacity="1" stop-color="rgb(25.306702%, 49.401855%, 77.999878%)" offset="0.335938"/><stop stop-opacity="1" stop-color="rgb(25.106812%, 49.211121%, 77.999878%)" offset="0.339844"/><stop stop-opacity="1" stop-color="rgb(25.099182%, 49.01123%, 77.816772%)" offset="0.34375"/><stop stop-opacity="1" stop-color="rgb(25.099182%, 48.820496%, 77.615356%)" offset="0.347656"/><stop stop-opacity="1" stop-color="rgb(25.099182%, 48.597717%, 77.449036%)" offset="0.351562"/><stop stop-opacity="1" stop-color="rgb(25.099182%, 48.374939%, 77.279663%)" offset="0.355469"/><stop stop-opacity="1" stop-color="rgb(25.099182%, 48.184204%, 77.079773%)" offset="0.359375"/><stop stop-opacity="1" stop-color="rgb(25.090027%, 47.984314%, 76.899719%)" offset="0.363281"/><stop stop-opacity="1" stop-color="rgb(24.890137%, 47.795105%, 76.895142%)" offset="0.367188"/><stop stop-opacity="1" stop-color="rgb(24.699402%, 47.645569%, 76.695251%)" offset="0.371094"/><stop stop-opacity="1" stop-color="rgb(24.508667%, 47.30835%, 76.499939%)" offset="0.378906"/><stop stop-opacity="1" stop-color="rgb(24.308777%, 46.92688%, 76.318359%)" offset="0.382812"/><stop stop-opacity="1" stop-color="rgb(24.299622%, 46.717834%, 76.116943%)" offset="0.390625"/><stop stop-opacity="1" stop-color="rgb(24.299622%, 46.499634%, 76.077271%)" offset="0.394531"/><stop stop-opacity="1" stop-color="rgb(24.299622%, 46.286011%, 75.87738%)" offset="0.398438"/><stop stop-opacity="1" stop-color="rgb(24.299622%, 46.086121%, 75.691223%)" offset="0.40625"/><stop stop-opacity="1" stop-color="rgb(24.29657%, 45.895386%, 75.491333%)" offset="0.410156"/><stop stop-opacity="1" stop-color="rgb(24.098206%, 45.697021%, 75.299072%)" offset="0.414062"/><stop stop-opacity="1" stop-color="rgb(23.901367%, 45.306396%, 75.299072%)" offset="0.417969"/><stop stop-opacity="1" stop-color="rgb(23.899841%, 45.10498%, 75.109863%)" offset="0.421875"/><stop stop-opacity="1" stop-color="rgb(23.899841%, 44.914246%, 74.909973%)" offset="0.425781"/><stop stop-opacity="1" stop-color="rgb(23.899841%, 44.540405%, 74.723816%)" offset="0.429688"/><stop stop-opacity="1" stop-color="rgb(23.899841%, 44.32373%, 74.504089%)" offset="0.4375"/><stop stop-opacity="1" stop-color="rgb(23.883057%, 44.282532%, 74.278259%)" offset="0.441406"/><stop stop-opacity="1" stop-color="rgb(23.683167%, 44.076538%, 74.099731%)" offset="0.445312"/><stop stop-opacity="1" stop-color="rgb(23.497009%, 43.693542%, 74.098206%)" offset="0.453125"/><stop stop-opacity="1" stop-color="rgb(23.300171%, 43.499756%, 73.901367%)" offset="0.457031"/><stop stop-opacity="1" stop-color="rgb(23.101807%, 43.307495%, 73.703003%)" offset="0.460938"/><stop stop-opacity="1" stop-color="rgb(23.098755%, 43.107605%, 73.516846%)" offset="0.464844"/><stop stop-opacity="1" stop-color="rgb(23.098755%, 42.921448%, 73.31543%)" offset="0.472656"/><stop stop-opacity="1" stop-color="rgb(23.098755%, 42.570496%, 73.275757%)" offset="0.476562"/><stop stop-opacity="1" stop-color="rgb(23.098755%, 42.379761%, 73.075867%)" offset="0.480469"/><stop stop-opacity="1" stop-color="rgb(23.098755%, 42.170715%, 72.889709%)" offset="0.484375"/><stop stop-opacity="1" stop-color="rgb(23.094177%, 41.789246%, 72.689819%)" offset="0.492188"/><stop stop-opacity="1" stop-color="rgb(22.894287%, 41.598511%, 72.499084%)" offset="0.496094"/><stop stop-opacity="1" stop-color="rgb(22.698975%, 41.407776%, 72.499084%)" offset="0.503906"/><stop stop-opacity="1" stop-color="rgb(22.698975%, 41.207886%, 72.358704%)" offset="0.507812"/><stop stop-opacity="1" stop-color="rgb(22.698975%, 41.017151%, 72.209167%)" offset="0.511719"/><stop stop-opacity="1" stop-color="rgb(22.566223%, 40.817261%, 72.021484%)" offset="0.515625"/><stop stop-opacity="1" stop-color="rgb(22.416687%, 40.59906%, 71.821594%)" offset="0.519531"/><stop stop-opacity="1" stop-color="rgb(22.399902%, 40.39917%, 71.781921%)" offset="0.523438"/><stop stop-opacity="1" stop-color="rgb(22.399902%, 40.386963%, 71.582031%)" offset="0.527344"/><stop stop-opacity="1" stop-color="rgb(22.399902%, 40.187073%, 71.398926%)" offset="0.53125"/><stop stop-opacity="1" stop-color="rgb(22.399902%, 39.996338%, 71.398926%)" offset="0.535156"/><stop stop-opacity="1" stop-color="rgb(22.399902%, 39.797974%, 71.398926%)" offset="0.539062"/><stop stop-opacity="1" stop-color="rgb(22.206116%, 39.601135%, 71.205139%)" offset="0.542969"/><stop stop-opacity="1" stop-color="rgb(22.0047%, 39.4104%, 71.005249%)" offset="0.546875"/><stop stop-opacity="1" stop-color="rgb(21.998596%, 39.21051%, 70.814514%)" offset="0.550781"/><stop stop-opacity="1" stop-color="rgb(21.998596%, 39.019775%, 70.614624%)" offset="0.554688"/><stop stop-opacity="1" stop-color="rgb(21.998596%, 38.818359%, 70.599365%)" offset="0.558594"/><stop stop-opacity="1" stop-color="rgb(21.998596%, 38.598633%, 70.578003%)" offset="0.5625"/><stop stop-opacity="1" stop-color="rgb(21.998596%, 38.383484%, 70.378113%)" offset="0.566406"/><stop stop-opacity="1" stop-color="rgb(21.99707%, 38.182068%, 70.198059%)" offset="0.570312"/><stop stop-opacity="1" stop-color="rgb(21.800232%, 37.800598%, 70.001221%)" offset="0.582031"/><stop stop-opacity="1" stop-color="rgb(21.601868%, 37.451172%, 69.619751%)" offset="0.585938"/><stop stop-opacity="1" stop-color="rgb(21.420288%, 37.298584%, 69.415283%)" offset="0.597656"/><stop stop-opacity="1" stop-color="rgb(21.220398%, 37.098694%, 69.198608%)" offset="0.601562"/><stop stop-opacity="1" stop-color="rgb(21.199036%, 36.880493%, 68.998718%)" offset="0.605469"/><stop stop-opacity="1" stop-color="rgb(21.199036%, 36.680603%, 68.984985%)" offset="0.609375"/><stop stop-opacity="1" stop-color="rgb(21.199036%, 36.489868%, 68.785095%)" offset="0.613281"/><stop stop-opacity="1" stop-color="rgb(21.199036%, 36.289978%, 68.598938%)" offset="0.617188"/><stop stop-opacity="1" stop-color="rgb(21.199036%, 36.099243%, 68.598938%)" offset="0.621094"/><stop stop-opacity="1" stop-color="rgb(21.199036%, 35.903931%, 68.403625%)" offset="0.625"/><stop stop-opacity="1" stop-color="rgb(21.199036%, 35.704041%, 68.203735%)" offset="0.628906"/><stop stop-opacity="1" stop-color="rgb(21.199036%, 35.517883%, 68.199158%)" offset="0.636719"/><stop stop-opacity="1" stop-color="rgb(21.022034%, 35.317993%, 68.022156%)" offset="0.640625"/><stop stop-opacity="1" stop-color="rgb(20.822144%, 35.099792%, 67.822266%)" offset="0.644531"/><stop stop-opacity="1" stop-color="rgb(20.799255%, 34.886169%, 67.790222%)" offset="0.648438"/><stop stop-opacity="1" stop-color="rgb(20.799255%, 34.683228%, 67.63916%)" offset="0.65625"/><stop stop-opacity="1" stop-color="rgb(20.799255%, 34.29718%, 67.498779%)" offset="0.664062"/><stop stop-opacity="1" stop-color="rgb(20.605469%, 34.100342%, 67.304993%)" offset="0.667969"/><stop stop-opacity="1" stop-color="rgb(20.405579%, 33.914185%, 67.105103%)" offset="0.671875"/><stop stop-opacity="1" stop-color="rgb(20.399475%, 33.714294%, 66.918945%)" offset="0.679688"/><stop stop-opacity="1" stop-color="rgb(20.399475%, 33.52356%, 66.719055%)" offset="0.683594"/><stop stop-opacity="1" stop-color="rgb(20.399475%, 33.303833%, 66.499329%)" offset="0.6875"/><stop stop-opacity="1" stop-color="rgb(20.399475%, 33.067322%, 66.299438%)" offset="0.691406"/><stop stop-opacity="1" stop-color="rgb(20.393372%, 32.688904%, 66.293335%)" offset="0.699219"/><stop stop-opacity="1" stop-color="rgb(20.193481%, 32.348633%, 66.093445%)" offset="0.703125"/><stop stop-opacity="1" stop-color="rgb(19.999695%, 32.199097%, 65.716553%)" offset="0.71875"/><stop stop-opacity="1" stop-color="rgb(19.999695%, 32.020569%, 65.516663%)" offset="0.722656"/><stop stop-opacity="1" stop-color="rgb(19.999695%, 31.797791%, 65.475464%)" offset="0.726562"/><stop stop-opacity="1" stop-color="rgb(19.979858%, 31.575012%, 65.275574%)" offset="0.730469"/><stop stop-opacity="1" stop-color="rgb(19.779968%, 31.390381%, 65.089417%)" offset="0.734375"/><stop stop-opacity="1" stop-color="rgb(19.599915%, 31.190491%, 64.889526%)" offset="0.742188"/><stop stop-opacity="1" stop-color="rgb(19.599915%, 30.804443%, 64.503479%)" offset="0.75"/><stop stop-opacity="1" stop-color="rgb(19.599915%, 30.604553%, 64.303589%)" offset="0.753906"/><stop stop-opacity="1" stop-color="rgb(19.599915%, 30.413818%, 64.299011%)" offset="0.757812"/><stop stop-opacity="1" stop-color="rgb(19.599915%, 30.212402%, 64.299011%)" offset="0.761719"/><stop stop-opacity="1" stop-color="rgb(19.599915%, 30.198669%, 64.122009%)" offset="0.765625"/><stop stop-opacity="1" stop-color="rgb(19.398499%, 29.998779%, 63.922119%)" offset="0.769531"/><stop stop-opacity="1" stop-color="rgb(19.198608%, 29.798889%, 63.899231%)" offset="0.773438"/><stop stop-opacity="1" stop-color="rgb(19.198608%, 29.786682%, 63.887024%)" offset="0.777344"/><stop stop-opacity="1" stop-color="rgb(19.198608%, 29.586792%, 63.687134%)" offset="0.78125"/><stop stop-opacity="1" stop-color="rgb(19.198608%, 29.396057%, 63.499451%)" offset="0.785156"/><stop stop-opacity="1" stop-color="rgb(19.198608%, 29.197693%, 63.499451%)" offset="0.789062"/><stop stop-opacity="1" stop-color="rgb(19.198608%, 29.000854%, 63.305664%)" offset="0.792969"/><stop stop-opacity="1" stop-color="rgb(19.198608%, 28.999329%, 63.105774%)" offset="0.796875"/><stop stop-opacity="1" stop-color="rgb(19.198608%, 28.814697%, 63.09967%)" offset="0.800781"/><stop stop-opacity="1" stop-color="rgb(19.198608%, 28.614807%, 63.09967%)" offset="0.804688"/><stop stop-opacity="1" stop-color="rgb(19.198608%, 28.599548%, 62.924194%)" offset="0.808594"/><stop stop-opacity="1" stop-color="rgb(18.998718%, 28.399658%, 62.709045%)" offset="0.8125"/><stop stop-opacity="1" stop-color="rgb(18.798828%, 28.182983%, 62.533569%)" offset="0.816406"/><stop stop-opacity="1" stop-color="rgb(18.798828%, 27.978516%, 62.393188%)" offset="0.820312"/><stop stop-opacity="1" stop-color="rgb(18.798828%, 27.644348%, 62.193298%)" offset="0.828125"/><stop stop-opacity="1" stop-color="rgb(18.798828%, 27.311707%, 61.999512%)" offset="0.835938"/><stop stop-opacity="1" stop-color="rgb(18.615723%, 27.111816%, 61.816406%)" offset="0.84375"/><stop stop-opacity="1" stop-color="rgb(18.415833%, 27.099609%, 61.616516%)" offset="0.847656"/><stop stop-opacity="1" stop-color="rgb(18.399048%, 26.899719%, 61.599731%)" offset="0.851562"/><stop stop-opacity="1" stop-color="rgb(18.399048%, 26.699829%, 61.579895%)" offset="0.855469"/><stop stop-opacity="1" stop-color="rgb(18.399048%, 26.68457%, 61.380005%)" offset="0.859375"/><stop stop-opacity="1" stop-color="rgb(18.399048%, 26.48468%, 61.193848%)" offset="0.863281"/><stop stop-opacity="1" stop-color="rgb(18.399048%, 26.10321%, 60.993958%)" offset="0.871094"/><stop stop-opacity="1" stop-color="rgb(18.399048%, 25.90332%, 60.798645%)" offset="0.878906"/><stop stop-opacity="1" stop-color="rgb(18.399048%, 25.712585%, 60.612488%)" offset="0.882812"/><stop stop-opacity="1" stop-color="rgb(18.399048%, 25.512695%, 60.412598%)" offset="0.886719"/><stop stop-opacity="1" stop-color="rgb(18.399048%, 25.498962%, 60.398865%)" offset="0.890625"/><stop stop-opacity="1" stop-color="rgb(18.199158%, 25.299072%, 60.198975%)" offset="0.894531"/><stop stop-opacity="1" stop-color="rgb(17.999268%, 25.099182%, 59.999084%)" offset="0.898438"/><stop stop-opacity="1" stop-color="rgb(17.999268%, 25.086975%, 59.986877%)" offset="0.902344"/><stop stop-opacity="1" stop-color="rgb(17.999268%, 24.887085%, 59.786987%)" offset="0.90625"/><stop stop-opacity="1" stop-color="rgb(17.999268%, 24.505615%, 59.599304%)" offset="0.917969"/><stop stop-opacity="1" stop-color="rgb(17.999268%, 24.305725%, 59.410095%)" offset="0.921875"/><stop stop-opacity="1" stop-color="rgb(17.999268%, 24.119568%, 59.210205%)" offset="0.925781"/><stop stop-opacity="1" stop-color="rgb(17.823792%, 23.919678%, 59.199524%)" offset="0.933594"/><stop stop-opacity="1" stop-color="rgb(17.623901%, 23.698425%, 58.999634%)" offset="0.9375"/><stop stop-opacity="1" stop-color="rgb(17.599487%, 23.483276%, 58.799744%)" offset="0.941406"/><stop stop-opacity="1" stop-color="rgb(17.599487%, 23.283386%, 58.787537%)" offset="0.945312"/><stop stop-opacity="1" stop-color="rgb(17.599487%, 23.098755%, 58.587646%)" offset="0.949219"/><stop stop-opacity="1" stop-color="rgb(17.599487%, 22.906494%, 58.399963%)" offset="0.960938"/><stop stop-opacity="1" stop-color="rgb(17.459106%, 22.706604%, 58.21228%)" offset="0.964844"/><stop stop-opacity="1" stop-color="rgb(17.308044%, 22.564697%, 58.010864%)" offset="0.96875"/><stop stop-opacity="1" stop-color="rgb(17.298889%, 22.415161%, 57.798767%)" offset="0.976562"/><stop stop-opacity="1" stop-color="rgb(17.298889%, 22.380066%, 57.598877%)" offset="0.980469"/><stop stop-opacity="1" stop-color="rgb(17.298889%, 22.180176%, 57.449341%)" offset="0.984375"/><stop stop-opacity="1" stop-color="rgb(17.298889%, 21.998596%, 57.299805%)" offset="1"/></radialGradient><clipPath id="db84dd5cb0"><path d="M 5.761719 16.167969 L 47.835938 16.167969 L 47.835938 37.0625 L 5.761719 37.0625 Z M 5.761719 16.167969 " clip-rule="nonzero"/></clipPath><clipPath id="f88b5942f4"><path d="M 31.261719 34.273438 C 31.261719 34.273438 31.328125 34.316406 31.457031 34.394531 C 31.582031 34.480469 31.78125 34.589844 32.03125 34.734375 C 32.539062 35.015625 33.320312 35.371094 34.34375 35.625 C 35.363281 35.867188 36.660156 35.980469 38.042969 35.714844 C 38.226562 35.675781 38.429688 35.648438 38.605469 35.601562 C 38.769531 35.554688 38.9375 35.503906 39.109375 35.453125 C 39.277344 35.414062 39.457031 35.328125 39.632812 35.265625 C 39.8125 35.195312 39.992188 35.132812 40.164062 35.035156 C 40.871094 34.714844 41.554688 34.261719 42.179688 33.703125 C 43.4375 32.597656 44.457031 31.019531 44.835938 29.203125 C 44.875 28.976562 44.910156 28.746094 44.949219 28.515625 C 44.976562 28.285156 44.984375 28.050781 45.003906 27.816406 L 45.011719 27.75 C 45.007812 27.773438 45.015625 27.664062 45.007812 27.800781 L 45.007812 27.695312 L 45 27.488281 L 44.992188 27.066406 C 45 26.757812 44.945312 26.585938 44.921875 26.359375 L 44.875 26.035156 L 44.789062 25.683594 L 44.710938 25.332031 C 44.6875 25.210938 44.632812 25.101562 44.597656 24.984375 C 44.457031 24.523438 44.25 24.078125 44.019531 23.648438 C 43.542969 22.792969 42.910156 22.011719 42.140625 21.375 C 41.375 20.742188 40.476562 20.253906 39.519531 19.953125 C 39.277344 19.890625 39.035156 19.828125 38.789062 19.765625 L 38.042969 19.65625 C 37.792969 19.632812 37.539062 19.636719 37.285156 19.621094 L 37.191406 19.617188 C 37.128906 19.617188 37.246094 19.613281 37.222656 19.613281 L 37.195312 19.613281 L 37.136719 19.617188 L 36.90625 19.625 L 36.441406 19.644531 L 36.324219 19.648438 C 36.289062 19.652344 36.257812 19.65625 36.226562 19.660156 L 36.039062 19.683594 L 35.667969 19.722656 C 35.410156 19.757812 35.132812 19.816406 34.867188 19.859375 C 34.597656 19.917969 34.332031 19.988281 34.066406 20.050781 L 33.269531 20.292969 C 31.15625 20.996094 29.15625 22.222656 27.277344 23.621094 C 26.808594 23.972656 26.34375 24.335938 25.890625 24.710938 C 25.433594 25.078125 24.972656 25.460938 24.53125 25.84375 C 23.632812 26.613281 22.753906 27.40625 21.863281 28.179688 C 20.980469 28.949219 20.09375 29.730469 19.195312 30.445312 C 18.285156 31.175781 17.34375 31.894531 16.285156 32.464844 C 15.242188 33.035156 14.070312 33.464844 12.875 33.578125 C 12.726562 33.597656 12.574219 33.59375 12.425781 33.601562 L 12.203125 33.609375 C 12.25 33.609375 12.109375 33.613281 12.117188 33.613281 L 12.09375 33.609375 L 11.953125 33.601562 C 11.828125 33.59375 11.707031 33.582031 11.582031 33.574219 C 11.441406 33.5625 11.269531 33.53125 11.117188 33.507812 C 10.789062 33.46875 10.53125 33.375 10.253906 33.300781 C 9.984375 33.210938 9.722656 33.109375 9.472656 32.992188 C 8.480469 32.503906 7.664062 31.820312 7.066406 31.042969 C 6.480469 30.257812 6.09375 29.394531 5.917969 28.550781 C 5.738281 27.714844 5.757812 26.882812 5.882812 26.203125 C 6 25.496094 6.21875 24.882812 6.464844 24.359375 C 6.714844 23.839844 6.996094 23.410156 7.269531 23.066406 C 7.546875 22.722656 7.804688 22.453125 8.023438 22.253906 C 8.132812 22.152344 8.234375 22.066406 8.324219 21.996094 C 8.410156 21.925781 8.488281 21.867188 8.550781 21.824219 C 8.671875 21.734375 8.738281 21.6875 8.738281 21.6875 C 8.738281 21.6875 8.683594 21.746094 8.585938 21.863281 C 8.484375 21.976562 8.34375 22.152344 8.171875 22.386719 C 7.832031 22.855469 7.394531 23.597656 7.117188 24.609375 C 6.984375 25.109375 6.882812 25.683594 6.882812 26.292969 C 6.878906 26.929688 6.960938 27.550781 7.203125 28.183594 C 7.4375 28.808594 7.816406 29.421875 8.335938 29.941406 C 8.855469 30.457031 9.511719 30.878906 10.238281 31.128906 C 10.328125 31.167969 10.425781 31.179688 10.519531 31.207031 C 10.613281 31.230469 10.703125 31.265625 10.800781 31.277344 C 10.988281 31.304688 11.191406 31.355469 11.351562 31.347656 C 11.441406 31.351562 11.511719 31.363281 11.613281 31.363281 C 11.738281 31.359375 11.859375 31.355469 11.984375 31.351562 L 12.078125 31.347656 L 12.125 31.34375 L 12.148438 31.34375 C 12.167969 31.34375 12.046875 31.34375 12.109375 31.34375 L 12.257812 31.320312 C 12.359375 31.300781 12.460938 31.296875 12.558594 31.269531 C 13.363281 31.101562 14.171875 30.746094 14.960938 30.210938 C 15.753906 29.6875 16.539062 29.015625 17.332031 28.273438 C 18.140625 27.511719 18.953125 26.734375 19.785156 25.910156 C 20.617188 25.089844 21.480469 24.253906 22.378906 23.414062 C 23.277344 22.574219 24.226562 21.738281 25.238281 20.941406 C 27.25 19.347656 29.550781 17.890625 32.179688 16.996094 C 33.5 16.5625 34.851562 16.28125 36.320312 16.203125 L 36.785156 16.1875 L 37.019531 16.179688 L 37.105469 16.179688 C 37.101562 16.179688 37.238281 16.175781 37.199219 16.179688 L 37.335938 16.183594 C 37.699219 16.210938 38.066406 16.222656 38.429688 16.265625 C 38.789062 16.324219 39.152344 16.382812 39.507812 16.453125 C 39.859375 16.550781 40.210938 16.648438 40.558594 16.75 C 43.328125 17.679688 45.570312 19.769531 46.738281 22.246094 C 47.03125 22.867188 47.273438 23.503906 47.4375 24.152344 C 47.476562 24.316406 47.535156 24.472656 47.5625 24.640625 L 47.644531 25.128906 C 47.671875 25.292969 47.695312 25.457031 47.722656 25.621094 C 47.738281 25.789062 47.746094 25.96875 47.757812 26.140625 C 47.773438 26.480469 47.804688 26.863281 47.777344 27.113281 L 47.753906 27.53125 L 47.742188 27.742188 L 47.738281 27.84375 C 47.730469 27.996094 47.734375 27.902344 47.730469 27.945312 L 47.726562 27.976562 L 47.71875 28.035156 C 47.671875 28.347656 47.632812 28.664062 47.570312 28.96875 C 47.496094 29.273438 47.425781 29.578125 47.339844 29.871094 C 46.984375 31.050781 46.425781 32.121094 45.738281 33.03125 C 45.050781 33.9375 44.253906 34.699219 43.402344 35.289062 C 42.546875 35.878906 41.65625 36.328125 40.761719 36.597656 C 40.542969 36.679688 40.316406 36.730469 40.097656 36.78125 C 39.875 36.832031 39.667969 36.894531 39.4375 36.921875 C 39.214844 36.953125 38.992188 36.984375 38.777344 37.015625 C 38.566406 37.039062 38.382812 37.03125 38.1875 37.042969 C 36.542969 37.109375 35.164062 36.738281 34.125 36.28125 C 33.078125 35.820312 32.375 35.277344 31.917969 34.898438 C 31.691406 34.703125 31.527344 34.546875 31.421875 34.4375 C 31.316406 34.328125 31.261719 34.273438 31.261719 34.273438 Z M 31.261719 34.273438 " clip-rule="nonzero"/></clipPath><clipPath id="4ce3249fc0"><path d="M 31.261719 34.273438 C 31.261719 34.273438 31.328125 34.316406 31.457031 34.394531 C 31.582031 34.480469 31.78125 34.589844 32.03125 34.734375 C 32.539062 35.015625 33.320312 35.371094 34.34375 35.625 C 35.363281 35.867188 36.660156 35.980469 38.042969 35.714844 C 38.226562 35.675781 38.429688 35.648438 38.605469 35.601562 C 38.769531 35.554688 38.9375 35.503906 39.109375 35.453125 C 39.277344 35.414062 39.457031 35.328125 39.632812 35.265625 C 39.8125 35.195312 39.992188 35.132812 40.164062 35.035156 C 40.871094 34.714844 41.554688 34.261719 42.179688 33.703125 C 43.4375 32.597656 44.457031 31.019531 44.835938 29.203125 C 44.875 28.976562 44.910156 28.746094 44.949219 28.515625 C 44.976562 28.285156 44.984375 28.050781 45.003906 27.816406 L 45.011719 27.75 C 45.007812 27.773438 45.015625 27.664062 45.007812 27.800781 L 45.007812 27.695312 L 45 27.488281 L 44.992188 27.066406 C 45 26.757812 44.945312 26.585938 44.921875 26.359375 L 44.875 26.035156 L 44.789062 25.683594 L 44.710938 25.332031 C 44.6875 25.210938 44.632812 25.101562 44.597656 24.984375 C 44.457031 24.523438 44.25 24.078125 44.019531 23.648438 C 43.542969 22.792969 42.910156 22.011719 42.140625 21.375 C 41.375 20.742188 40.476562 20.253906 39.519531 19.953125 C 39.277344 19.890625 39.035156 19.828125 38.789062 19.765625 L 38.042969 19.65625 C 37.792969 19.632812 37.539062 19.636719 37.285156 19.621094 L 37.191406 19.617188 C 37.128906 19.617188 37.246094 19.613281 37.222656 19.613281 L 37.195312 19.613281 L 37.136719 19.617188 L 36.90625 19.625 L 36.441406 19.644531 L 36.324219 19.648438 C 36.289062 19.652344 36.257812 19.65625 36.226562 19.660156 L 36.039062 19.683594 L 35.667969 19.722656 C 35.410156 19.757812 35.132812 19.816406 34.867188 19.859375 C 34.597656 19.917969 34.332031 19.988281 34.066406 20.050781 L 33.269531 20.292969 C 31.15625 20.996094 29.15625 22.222656 27.277344 23.621094 C 26.808594 23.972656 26.34375 24.335938 25.890625 24.710938 C 25.433594 25.078125 24.972656 25.460938 24.53125 25.84375 C 23.632812 26.613281 22.753906 27.40625 21.863281 28.179688 C 20.980469 28.949219 20.09375 29.730469 19.195312 30.445312 C 18.285156 31.175781 17.34375 31.894531 16.285156 32.464844 C 15.242188 33.035156 14.070312 33.464844 12.875 33.578125 C 12.726562 33.597656 12.574219 33.59375 12.425781 33.601562 L 12.203125 33.609375 C 12.25 33.609375 12.109375 33.613281 12.117188 33.613281 L 12.09375 33.609375 L 11.953125 33.601562 C 11.828125 33.59375 11.707031 33.582031 11.582031 33.574219 C 11.441406 33.5625 11.269531 33.53125 11.117188 33.507812 C 10.789062 33.46875 10.53125 33.375 10.253906 33.300781 C 9.984375 33.210938 9.722656 33.109375 9.472656 32.992188 C 8.480469 32.503906 7.664062 31.820312 7.066406 31.042969 C 6.480469 30.257812 6.09375 29.394531 5.917969 28.550781 C 5.738281 27.714844 5.757812 26.882812 5.882812 26.203125 C 6 25.496094 6.21875 24.882812 6.464844 24.359375 C 6.714844 23.839844 6.996094 23.410156 7.269531 23.066406 C 7.546875 22.722656 7.804688 22.453125 8.023438 22.253906 C 8.132812 22.152344 8.234375 22.066406 8.324219 21.996094 C 8.410156 21.925781 8.488281 21.867188 8.550781 21.824219 C 8.671875 21.734375 8.738281 21.6875 8.738281 21.6875 C 8.738281 21.6875 8.683594 21.746094 8.585938 21.863281 C 8.484375 21.976562 8.34375 22.152344 8.171875 22.386719 C 7.832031 22.855469 7.394531 23.597656 7.117188 24.609375 C 6.984375 25.109375 6.882812 25.683594 6.882812 26.292969 C 6.878906 26.929688 6.960938 27.550781 7.203125 28.183594 C 7.4375 28.808594 7.816406 29.421875 8.335938 29.941406 C 8.855469 30.457031 9.511719 30.878906 10.238281 31.128906 C 10.328125 31.167969 10.425781 31.179688 10.519531 31.207031 C 10.613281 31.230469 10.703125 31.265625 10.800781 31.277344 C 10.988281 31.304688 11.191406 31.355469 11.351562 31.347656 C 11.441406 31.351562 11.511719 31.363281 11.613281 31.363281 C 11.738281 31.359375 11.859375 31.355469 11.984375 31.351562 L 12.078125 31.347656 L 12.125 31.34375 L 12.148438 31.34375 C 12.167969 31.34375 12.046875 31.34375 12.109375 31.34375 L 12.257812 31.320312 C 12.359375 31.300781 12.460938 31.296875 12.558594 31.269531 C 13.363281 31.101562 14.171875 30.746094 14.960938 30.210938 C 15.753906 29.6875 16.539062 29.015625 17.332031 28.273438 C 18.140625 27.511719 18.953125 26.734375 19.785156 25.910156 C 20.617188 25.089844 21.480469 24.253906 22.378906 23.414062 C 23.277344 22.574219 24.226562 21.738281 25.238281 20.941406 C 27.25 19.347656 29.550781 17.890625 32.179688 16.996094 C 33.5 16.5625 34.851562 16.28125 36.320312 16.203125 L 36.785156 16.1875 L 37.019531 16.179688 L 37.105469 16.179688 C 37.101562 16.179688 37.238281 16.175781 37.199219 16.179688 L 37.335938 16.183594 C 37.699219 16.210938 38.066406 16.222656 38.429688 16.265625 C 38.789062 16.324219 39.152344 16.382812 39.507812 16.453125 C 39.859375 16.550781 40.210938 16.648438 40.558594 16.75 C 43.328125 17.679688 45.570312 19.769531 46.738281 22.246094 C 47.03125 22.867188 47.273438 23.503906 47.4375 24.152344 C 47.476562 24.316406 47.535156 24.472656 47.5625 24.640625 L 47.644531 25.128906 C 47.671875 25.292969 47.695312 25.457031 47.722656 25.621094 C 47.738281 25.789062 47.746094 25.96875 47.757812 26.140625 C 47.773438 26.480469 47.804688 26.863281 47.777344 27.113281 L 47.753906 27.53125 L 47.742188 27.742188 L 47.738281 27.84375 C 47.730469 27.996094 47.734375 27.902344 47.730469 27.945312 L 47.726562 27.976562 L 47.71875 28.035156 C 47.671875 28.347656 47.632812 28.664062 47.570312 28.96875 C 47.496094 29.273438 47.425781 29.578125 47.339844 29.871094 C 46.984375 31.050781 46.425781 32.121094 45.738281 33.03125 C 45.050781 33.9375 44.253906 34.699219 43.402344 35.289062 C 42.546875 35.878906 41.65625 36.328125 40.761719 36.597656 C 40.542969 36.679688 40.316406 36.730469 40.097656 36.78125 C 39.875 36.832031 39.667969 36.894531 39.4375 36.921875 C 39.214844 36.953125 38.992188 36.984375 38.777344 37.015625 C 38.566406 37.039062 38.382812 37.03125 38.1875 37.042969 C 36.542969 37.109375 35.164062 36.738281 34.125 36.28125 C 33.078125 35.820312 32.375 35.277344 31.917969 34.898438 C 31.691406 34.703125 31.527344 34.546875 31.421875 34.4375 C 31.316406 34.328125 31.261719 34.273438 31.261719 34.273438 " clip-rule="nonzero"/></clipPath><clipPath id="c1d5aa89b8"><path d="M 57.339844 22.445312 L 18.339844 -3.199219 L -3.796875 30.835938 L 35.203125 56.484375 Z M 57.339844 22.445312 " clip-rule="nonzero"/></clipPath><radialGradient gradientTransform="matrix(-0.545816, 0.839226, -0.834603, -0.54884, 31.49749, 9.169607)" gradientUnits="userSpaceOnUse" r="38.90659" cx="0" id="0fa1718559" cy="0" fx="0" fy="0"><stop stop-opacity="1" stop-color="rgb(0.193787%, 67.799377%, 93.699646%)" offset="0"/><stop stop-opacity="1" stop-color="rgb(0.393677%, 67.658997%, 93.513489%)" offset="0.0078125"/><stop stop-opacity="1" stop-color="rgb(0.39978%, 67.50946%, 93.313599%)" offset="0.0117188"/><stop stop-opacity="1" stop-color="rgb(0.39978%, 67.498779%, 93.299866%)" offset="0.015625"/><stop stop-opacity="1" stop-color="rgb(0.59967%, 67.498779%, 93.299866%)" offset="0.0195312"/><stop stop-opacity="1" stop-color="rgb(0.799561%, 67.481995%, 93.299866%)" offset="0.0234375"/><stop stop-opacity="1" stop-color="rgb(0.799561%, 67.282104%, 93.286133%)" offset="0.0273438"/><stop stop-opacity="1" stop-color="rgb(0.80719%, 67.098999%, 93.086243%)" offset="0.03125"/><stop stop-opacity="1" stop-color="rgb(1.00708%, 67.098999%, 92.89856%)" offset="0.0351562"/><stop stop-opacity="1" stop-color="rgb(1.199341%, 66.90979%, 92.89856%)" offset="0.046875"/><stop stop-opacity="1" stop-color="rgb(1.199341%, 66.7099%, 92.89856%)" offset="0.0507812"/><stop stop-opacity="1" stop-color="rgb(1.199341%, 66.699219%, 92.718506%)" offset="0.0546875"/><stop stop-opacity="1" stop-color="rgb(1.373291%, 66.699219%, 92.518616%)" offset="0.0585938"/><stop stop-opacity="1" stop-color="rgb(1.573181%, 66.677856%, 92.498779%)" offset="0.0625"/><stop stop-opacity="1" stop-color="rgb(1.61438%, 66.477966%, 92.498779%)" offset="0.0664062"/><stop stop-opacity="1" stop-color="rgb(1.81427%, 66.299438%, 92.349243%)" offset="0.0703125"/><stop stop-opacity="1" stop-color="rgb(1.998901%, 66.299438%, 92.199707%)" offset="0.0820312"/><stop stop-opacity="1" stop-color="rgb(2.191162%, 66.107178%, 92.199707%)" offset="0.0859375"/><stop stop-opacity="1" stop-color="rgb(2.391052%, 65.907288%, 92.021179%)" offset="0.0898438"/><stop stop-opacity="1" stop-color="rgb(2.415466%, 65.875244%, 91.821289%)" offset="0.101562"/><stop stop-opacity="1" stop-color="rgb(2.566528%, 65.675354%, 91.799927%)" offset="0.105469"/><stop stop-opacity="1" stop-color="rgb(2.703857%, 65.499878%, 91.793823%)" offset="0.117188"/><stop stop-opacity="1" stop-color="rgb(2.903748%, 65.499878%, 91.593933%)" offset="0.121094"/><stop stop-opacity="1" stop-color="rgb(3.09906%, 65.304565%, 91.398621%)" offset="0.125"/><stop stop-opacity="1" stop-color="rgb(3.09906%, 65.103149%, 91.398621%)" offset="0.128906"/><stop stop-opacity="1" stop-color="rgb(3.09906%, 65.098572%, 91.398621%)" offset="0.140625"/><stop stop-opacity="1" stop-color="rgb(3.29895%, 64.898682%, 91.19873%)" offset="0.144531"/><stop stop-opacity="1" stop-color="rgb(3.49884%, 64.698792%, 90.99884%)" offset="0.148438"/><stop stop-opacity="1" stop-color="rgb(3.511047%, 64.698792%, 90.99884%)" offset="0.152344"/><stop stop-opacity="1" stop-color="rgb(3.710938%, 64.698792%, 90.99884%)" offset="0.15625"/><stop stop-opacity="1" stop-color="rgb(3.898621%, 64.69574%, 90.99884%)" offset="0.160156"/><stop stop-opacity="1" stop-color="rgb(3.898621%, 64.497375%, 90.99884%)" offset="0.164062"/><stop stop-opacity="1" stop-color="rgb(4.092407%, 64.300537%, 90.805054%)" offset="0.167969"/><stop stop-opacity="1" stop-color="rgb(4.292297%, 64.299011%, 90.605164%)" offset="0.171875"/><stop stop-opacity="1" stop-color="rgb(4.299927%, 64.123535%, 90.59906%)" offset="0.183594"/><stop stop-opacity="1" stop-color="rgb(4.319763%, 63.923645%, 90.577698%)" offset="0.1875"/><stop stop-opacity="1" stop-color="rgb(4.525757%, 63.893127%, 90.377808%)" offset="0.191406"/><stop stop-opacity="1" stop-color="rgb(4.905701%, 63.693237%, 90.19928%)" offset="0.203125"/><stop stop-opacity="1" stop-color="rgb(5.28717%, 63.499451%, 90.011597%)" offset="0.214844"/><stop stop-opacity="1" stop-color="rgb(5.487061%, 63.499451%, 89.811707%)" offset="0.21875"/><stop stop-opacity="1" stop-color="rgb(5.499268%, 63.320923%, 89.7995%)" offset="0.222656"/><stop stop-opacity="1" stop-color="rgb(5.499268%, 63.121033%, 89.7995%)" offset="0.226562"/><stop stop-opacity="1" stop-color="rgb(5.499268%, 63.09967%, 89.779663%)" offset="0.230469"/><stop stop-opacity="1" stop-color="rgb(5.513%, 63.084412%, 89.579773%)" offset="0.234375"/><stop stop-opacity="1" stop-color="rgb(5.712891%, 62.884521%, 89.399719%)" offset="0.238281"/><stop stop-opacity="1" stop-color="rgb(6.09436%, 62.69989%, 89.399719%)" offset="0.25"/><stop stop-opacity="1" stop-color="rgb(6.29425%, 62.554932%, 89.205933%)" offset="0.253906"/><stop stop-opacity="1" stop-color="rgb(6.298828%, 62.40387%, 89.006042%)" offset="0.261719"/><stop stop-opacity="1" stop-color="rgb(6.396484%, 62.30011%, 88.999939%)" offset="0.269531"/><stop stop-opacity="1" stop-color="rgb(6.596375%, 62.10022%, 88.893127%)" offset="0.273438"/><stop stop-opacity="1" stop-color="rgb(6.800842%, 61.999512%, 88.691711%)" offset="0.28125"/><stop stop-opacity="1" stop-color="rgb(7.000732%, 61.901855%, 88.598633%)" offset="0.289062"/><stop stop-opacity="1" stop-color="rgb(7.191467%, 61.701965%, 88.50708%)" offset="0.296875"/><stop stop-opacity="1" stop-color="rgb(7.391357%, 61.499023%, 88.30719%)" offset="0.304688"/><stop stop-opacity="1" stop-color="rgb(7.580566%, 61.299133%, 88.198853%)" offset="0.3125"/><stop stop-opacity="1" stop-color="rgb(7.730103%, 61.199951%, 88.095093%)" offset="0.320312"/><stop stop-opacity="1" stop-color="rgb(7.798767%, 61.196899%, 87.895203%)" offset="0.328125"/><stop stop-opacity="1" stop-color="rgb(7.798767%, 61.000061%, 87.799072%)" offset="0.332031"/><stop stop-opacity="1" stop-color="rgb(7.798767%, 60.614014%, 87.658691%)" offset="0.335938"/><stop stop-opacity="1" stop-color="rgb(7.981873%, 60.411072%, 87.509155%)" offset="0.34375"/><stop stop-opacity="1" stop-color="rgb(8.280945%, 60.299683%, 87.5%)" offset="0.347656"/><stop stop-opacity="1" stop-color="rgb(8.49762%, 60.099792%, 87.391663%)" offset="0.355469"/><stop stop-opacity="1" stop-color="rgb(8.702087%, 59.999084%, 87.191772%)" offset="0.363281"/><stop stop-opacity="1" stop-color="rgb(8.901978%, 59.901428%, 87.098694%)" offset="0.371094"/><stop stop-opacity="1" stop-color="rgb(8.999634%, 59.701538%, 87.005615%)" offset="0.378906"/><stop stop-opacity="1" stop-color="rgb(9.100342%, 59.498596%, 86.805725%)" offset="0.386719"/><stop stop-opacity="1" stop-color="rgb(9.300232%, 59.298706%, 86.698914%)" offset="0.394531"/><stop stop-opacity="1" stop-color="rgb(9.503174%, 59.095764%, 86.595154%)" offset="0.402344"/><stop stop-opacity="1" stop-color="rgb(9.703064%, 58.80127%, 86.300659%)" offset="0.410156"/><stop stop-opacity="1" stop-color="rgb(9.889221%, 58.505249%, 86.004639%)" offset="0.425781"/><stop stop-opacity="1" stop-color="rgb(10.076904%, 58.399963%, 85.899353%)" offset="0.433594"/><stop stop-opacity="1" stop-color="rgb(10.284424%, 58.399963%, 85.899353%)" offset="0.4375"/><stop stop-opacity="1" stop-color="rgb(10.496521%, 58.293152%, 85.794067%)" offset="0.441406"/><stop stop-opacity="1" stop-color="rgb(10.699463%, 58.093262%, 85.594177%)" offset="0.449219"/><stop stop-opacity="1" stop-color="rgb(10.899353%, 57.902527%, 85.499573%)" offset="0.457031"/><stop stop-opacity="1" stop-color="rgb(10.998535%, 57.702637%, 85.40802%)" offset="0.464844"/><stop stop-opacity="1" stop-color="rgb(11.097717%, 57.524109%, 85.20813%)" offset="0.472656"/><stop stop-opacity="1" stop-color="rgb(11.297607%, 57.272339%, 84.996033%)" offset="0.480469"/><stop stop-opacity="1" stop-color="rgb(11.497498%, 56.996155%, 84.796143%)" offset="0.496094"/><stop stop-opacity="1" stop-color="rgb(11.697388%, 56.716919%, 84.698486%)" offset="0.503906"/><stop stop-opacity="1" stop-color="rgb(11.975098%, 56.517029%, 84.521484%)" offset="0.515625"/><stop stop-opacity="1" stop-color="rgb(12.184143%, 56.486511%, 84.321594%)" offset="0.519531"/><stop stop-opacity="1" stop-color="rgb(12.358093%, 56.286621%, 84.298706%)" offset="0.53125"/><stop stop-opacity="1" stop-color="rgb(12.5%, 56.098938%, 84.295654%)" offset="0.535156"/><stop stop-opacity="1" stop-color="rgb(12.5%, 56.098938%, 84.09729%)" offset="0.539062"/><stop stop-opacity="1" stop-color="rgb(12.5%, 56.098938%, 83.900452%)" offset="0.542969"/><stop stop-opacity="1" stop-color="rgb(12.5%, 55.909729%, 83.898926%)" offset="0.546875"/><stop stop-opacity="1" stop-color="rgb(12.5%, 55.709839%, 83.898926%)" offset="0.550781"/><stop stop-opacity="1" stop-color="rgb(12.678528%, 55.699158%, 83.898926%)" offset="0.554688"/><stop stop-opacity="1" stop-color="rgb(12.878418%, 55.699158%, 83.898926%)" offset="0.558594"/><stop stop-opacity="1" stop-color="rgb(12.919617%, 55.677795%, 83.699036%)" offset="0.5625"/><stop stop-opacity="1" stop-color="rgb(13.119507%, 55.471802%, 83.499146%)" offset="0.566406"/><stop stop-opacity="1" stop-color="rgb(13.299561%, 55.093384%, 83.49762%)" offset="0.578125"/><stop stop-opacity="1" stop-color="rgb(13.299561%, 54.899597%, 83.300781%)" offset="0.582031"/><stop stop-opacity="1" stop-color="rgb(13.299561%, 54.899597%, 83.102417%)" offset="0.585938"/><stop stop-opacity="1" stop-color="rgb(13.487244%, 54.899597%, 83.099365%)" offset="0.589844"/><stop stop-opacity="1" stop-color="rgb(13.687134%, 54.899597%, 83.099365%)" offset="0.59375"/><stop stop-opacity="1" stop-color="rgb(13.699341%, 54.721069%, 83.099365%)" offset="0.597656"/><stop stop-opacity="1" stop-color="rgb(13.722229%, 54.521179%, 83.074951%)" offset="0.601562"/><stop stop-opacity="1" stop-color="rgb(13.922119%, 54.499817%, 82.875061%)" offset="0.605469"/><stop stop-opacity="1" stop-color="rgb(14.099121%, 54.484558%, 82.699585%)" offset="0.609375"/><stop stop-opacity="1" stop-color="rgb(14.099121%, 54.284668%, 82.699585%)" offset="0.613281"/><stop stop-opacity="1" stop-color="rgb(14.103699%, 54.098511%, 82.699585%)" offset="0.617188"/><stop stop-opacity="1" stop-color="rgb(14.303589%, 54.003906%, 82.548523%)" offset="0.621094"/><stop stop-opacity="1" stop-color="rgb(14.588928%, 53.804016%, 82.398987%)" offset="0.632812"/><stop stop-opacity="1" stop-color="rgb(14.788818%, 53.601074%, 82.299805%)" offset="0.640625"/><stop stop-opacity="1" stop-color="rgb(15.005493%, 53.401184%, 82.099915%)" offset="0.648438"/><stop stop-opacity="1" stop-color="rgb(15.205383%, 53.196716%, 81.999207%)" offset="0.65625"/><stop stop-opacity="1" stop-color="rgb(15.299988%, 52.996826%, 81.90155%)" offset="0.664062"/><stop stop-opacity="1" stop-color="rgb(15.391541%, 52.806091%, 81.70166%)" offset="0.671875"/><stop stop-opacity="1" stop-color="rgb(15.591431%, 52.606201%, 81.599426%)" offset="0.679688"/><stop stop-opacity="1" stop-color="rgb(15.80658%, 52.418518%, 81.491089%)" offset="0.6875"/><stop stop-opacity="1" stop-color="rgb(16.00647%, 52.1698%, 81.193542%)" offset="0.695312"/><stop stop-opacity="1" stop-color="rgb(16.192627%, 51.899719%, 80.900574%)" offset="0.710938"/><stop stop-opacity="1" stop-color="rgb(16.392517%, 51.696777%, 80.799866%)" offset="0.71875"/><stop stop-opacity="1" stop-color="rgb(16.607666%, 51.496887%, 80.690002%)" offset="0.726562"/><stop stop-opacity="1" stop-color="rgb(16.807556%, 51.293945%, 80.488586%)" offset="0.734375"/><stop stop-opacity="1" stop-color="rgb(16.998291%, 51.094055%, 80.39856%)" offset="0.742188"/><stop stop-opacity="1" stop-color="rgb(17.198181%, 50.999451%, 80.39856%)" offset="0.75"/><stop stop-opacity="1" stop-color="rgb(17.298889%, 50.813293%, 80.212402%)" offset="0.757812"/><stop stop-opacity="1" stop-color="rgb(17.448425%, 50.590515%, 80.012512%)" offset="0.761719"/><stop stop-opacity="1" stop-color="rgb(17.599487%, 50.376892%, 79.998779%)" offset="0.773438"/><stop stop-opacity="1" stop-color="rgb(17.599487%, 50.19989%, 79.986572%)" offset="0.777344"/><stop stop-opacity="1" stop-color="rgb(17.599487%, 50.19989%, 79.786682%)" offset="0.78125"/><stop stop-opacity="1" stop-color="rgb(17.599487%, 50.195312%, 79.598999%)" offset="0.785156"/><stop stop-opacity="1" stop-color="rgb(17.599487%, 49.996948%, 79.598999%)" offset="0.789062"/><stop stop-opacity="1" stop-color="rgb(17.793274%, 49.80011%, 79.598999%)" offset="0.792969"/><stop stop-opacity="1" stop-color="rgb(17.993164%, 49.798584%, 79.598999%)" offset="0.796875"/><stop stop-opacity="1" stop-color="rgb(17.999268%, 49.798584%, 79.414368%)" offset="0.800781"/><stop stop-opacity="1" stop-color="rgb(17.999268%, 49.61853%, 79.214478%)" offset="0.804688"/><stop stop-opacity="1" stop-color="rgb(18.173218%, 49.41864%, 79.199219%)" offset="0.808594"/><stop stop-opacity="1" stop-color="rgb(18.383789%, 49.388123%, 79.188538%)" offset="0.8125"/><stop stop-opacity="1" stop-color="rgb(18.608093%, 49.188232%, 78.988647%)" offset="0.816406"/><stop stop-opacity="1" stop-color="rgb(18.798828%, 48.997498%, 78.799438%)" offset="0.824219"/><stop stop-opacity="1" stop-color="rgb(18.798828%, 48.802185%, 78.799438%)" offset="0.832031"/><stop stop-opacity="1" stop-color="rgb(18.989563%, 48.602295%, 78.607178%)" offset="0.839844"/><stop stop-opacity="1" stop-color="rgb(19.189453%, 48.497009%, 78.407288%)" offset="0.847656"/><stop stop-opacity="1" stop-color="rgb(19.198608%, 48.297119%, 78.399658%)" offset="0.851562"/><stop stop-opacity="1" stop-color="rgb(19.303894%, 48.094177%, 78.294373%)" offset="0.859375"/><stop stop-opacity="1" stop-color="rgb(19.503784%, 47.894287%, 78.094482%)" offset="0.867188"/><stop stop-opacity="1" stop-color="rgb(19.784546%, 47.659302%, 77.999878%)" offset="0.882812"/><stop stop-opacity="1" stop-color="rgb(19.984436%, 47.509766%, 77.818298%)" offset="0.886719"/><stop stop-opacity="1" stop-color="rgb(19.999695%, 47.499084%, 77.616882%)" offset="0.890625"/><stop stop-opacity="1" stop-color="rgb(20.021057%, 47.476196%, 77.598572%)" offset="0.894531"/><stop stop-opacity="1" stop-color="rgb(20.220947%, 47.273254%, 77.449036%)" offset="0.898438"/><stop stop-opacity="1" stop-color="rgb(20.399475%, 46.896362%, 77.2995%)" offset="0.910156"/><stop stop-opacity="1" stop-color="rgb(20.593262%, 46.699524%, 77.2995%)" offset="0.917969"/><stop stop-opacity="1" stop-color="rgb(20.793152%, 46.508789%, 77.108765%)" offset="0.925781"/><stop stop-opacity="1" stop-color="rgb(20.799255%, 46.289062%, 76.908875%)" offset="0.933594"/><stop stop-opacity="1" stop-color="rgb(20.799255%, 46.078491%, 76.899719%)" offset="0.941406"/><stop stop-opacity="1" stop-color="rgb(20.809937%, 45.899963%, 76.899719%)" offset="0.945312"/><stop stop-opacity="1" stop-color="rgb(21.009827%, 45.892334%, 76.89209%)" offset="0.949219"/><stop stop-opacity="1" stop-color="rgb(21.199036%, 45.692444%, 76.6922%)" offset="0.953125"/><stop stop-opacity="1" stop-color="rgb(21.395874%, 45.498657%, 76.499939%)" offset="0.957031"/><stop stop-opacity="1" stop-color="rgb(21.594238%, 45.307922%, 76.499939%)" offset="0.964844"/><stop stop-opacity="1" stop-color="rgb(21.598816%, 45.108032%, 76.321411%)" offset="0.972656"/><stop stop-opacity="1" stop-color="rgb(21.798706%, 45.08667%, 76.119995%)" offset="0.976562"/><stop stop-opacity="1" stop-color="rgb(21.998596%, 44.88678%, 76.098633%)" offset="0.980469"/><stop stop-opacity="1" stop-color="rgb(21.998596%, 44.699097%, 76.094055%)" offset="0.988281"/><stop stop-opacity="1" stop-color="rgb(21.998596%, 44.699097%, 75.894165%)" offset="0.992188"/><stop stop-opacity="1" stop-color="rgb(21.998596%, 44.699097%, 75.698853%)" offset="1"/></radialGradient></defs><g clip-path="url(#837e24b806)"><g clip-path="url(#b026d36056)"><g clip-path="url(#4f34b35072)"><g clip-path="url(#1309f4c41a)"><path fill="url(#cdc8d484da)" d="M 56.320312 18.886719 L 13.785156 -9.082031 L -11.765625 30.199219 L 30.769531 58.167969 Z M 56.320312 18.886719 " fill-rule="nonzero"/></g></g></g></g><g clip-path="url(#db84dd5cb0)"><g clip-path="url(#f88b5942f4)"><g clip-path="url(#4ce3249fc0)"><g clip-path="url(#c1d5aa89b8)"><path fill="url(#0fa1718559)" d="M 57.320312 22.433594 L 18.355469 -3.1875 L -3.753906 30.804688 L 35.210938 56.429688 Z M 57.320312 22.433594 " fill-rule="nonzero"/></g></g></g></g></svg>