<svg xmlns="http://www.w3.org/2000/svg" xmlns:xlink="http://www.w3.org/1999/xlink" width="140" zoomAndPan="magnify" viewBox="0 0 104.88 30.000001" height="40" preserveAspectRatio="xMidYMid meet" version="1.0"><defs><g/><clipPath id="4903db918c"><path d="M 4.535156 2.921875 L 38.097656 2.921875 L 38.097656 24.699219 L 4.535156 24.699219 Z M 4.535156 2.921875 " clip-rule="nonzero"/></clipPath><clipPath id="31ef06efe9"><path d="M 34.753906 20.015625 C 35.019531 19.855469 35.261719 19.6875 35.488281 19.496094 C 35.710938 19.300781 35.917969 19.097656 36.097656 18.878906 C 36.746094 18.101562 37.101562 16.972656 36.855469 15.976562 C 36.800781 15.738281 36.710938 15.511719 36.589844 15.296875 C 36.472656 15.082031 36.332031 14.878906 36.160156 14.699219 C 35.488281 13.96875 34.484375 13.550781 33.449219 13.484375 C 32.410156 13.402344 31.339844 13.636719 30.34375 14.0625 C 30.214844 14.113281 30.09375 14.175781 29.96875 14.230469 C 29.914062 14.261719 29.835938 14.292969 29.792969 14.316406 L 29.59375 14.421875 C 29.464844 14.492188 29.359375 14.546875 29.238281 14.621094 C 29.117188 14.6875 28.996094 14.761719 28.878906 14.835938 C 28.40625 15.128906 27.953125 15.460938 27.507812 15.8125 C 26.617188 16.511719 25.78125 17.3125 24.941406 18.144531 C 24.097656 18.972656 23.257812 19.839844 22.339844 20.683594 C 21.417969 21.519531 20.417969 22.332031 19.277344 23.011719 C 18.144531 23.699219 16.847656 24.214844 15.503906 24.476562 C 14.828125 24.605469 14.144531 24.679688 13.46875 24.695312 L 13.246094 24.695312 L 12.964844 24.691406 C 12.898438 24.691406 12.789062 24.683594 12.695312 24.679688 C 12.601562 24.671875 12.503906 24.667969 12.414062 24.660156 C 12.058594 24.625 11.707031 24.574219 11.359375 24.5 C 9.964844 24.207031 8.628906 23.582031 7.539062 22.664062 C 6.445312 21.75 5.589844 20.554688 5.089844 19.230469 C 4.832031 18.574219 4.679688 17.878906 4.605469 17.183594 L 4.585938 17.019531 L 4.578125 16.910156 L 4.566406 16.6875 L 4.5625 16.632812 L 4.5625 16.5625 L 4.558594 16.421875 L 4.554688 16.140625 C 4.566406 15.789062 4.589844 15.441406 4.644531 15.09375 C 4.746094 14.402344 4.929688 13.71875 5.207031 13.074219 C 5.484375 12.429688 5.839844 11.820312 6.265625 11.261719 C 6.691406 10.707031 7.191406 10.207031 7.742188 9.769531 C 8.292969 9.335938 8.902344 8.976562 9.546875 8.691406 C 10.1875 8.40625 10.863281 8.203125 11.554688 8.085938 C 11.730469 8.054688 11.902344 8.03125 12.078125 8.015625 C 12.25 7.992188 12.425781 7.984375 12.597656 7.976562 C 12.773438 7.964844 12.949219 7.972656 13.121094 7.96875 L 13.214844 7.96875 L 13.273438 7.972656 L 13.386719 7.980469 L 13.613281 7.992188 L 12.59375 8.59375 C 13.039062 7.773438 13.585938 7.007812 14.226562 6.332031 C 14.867188 5.65625 15.589844 5.058594 16.375 4.566406 C 17.164062 4.078125 18.011719 3.6875 18.890625 3.410156 C 19.773438 3.132812 20.6875 2.980469 21.601562 2.9375 C 22.054688 2.914062 22.511719 2.917969 22.964844 2.964844 L 23.285156 2.992188 L 23.632812 3.039062 C 23.867188 3.066406 24.085938 3.113281 24.308594 3.15625 C 24.75 3.246094 25.179688 3.375 25.605469 3.519531 C 25.816406 3.589844 26.019531 3.679688 26.230469 3.757812 C 26.433594 3.847656 26.632812 3.945312 26.832031 4.039062 C 27.027344 4.148438 27.222656 4.246094 27.414062 4.359375 C 27.597656 4.480469 27.789062 4.585938 27.96875 4.714844 C 28.148438 4.84375 28.328125 4.964844 28.496094 5.101562 L 28.753906 5.304688 C 28.835938 5.375 28.917969 5.449219 28.996094 5.519531 C 29.160156 5.660156 29.316406 5.8125 29.464844 5.96875 C 29.621094 6.117188 29.757812 6.285156 29.898438 6.445312 C 30.042969 6.601562 30.167969 6.777344 30.300781 6.941406 C 30.425781 7.113281 30.542969 7.292969 30.660156 7.464844 C 30.363281 7.164062 30.0625 6.867188 29.738281 6.597656 C 29.574219 6.464844 29.417969 6.328125 29.246094 6.207031 L 28.992188 6.023438 C 28.90625 5.964844 28.816406 5.910156 28.730469 5.851562 C 28.644531 5.796875 28.558594 5.734375 28.46875 5.683594 L 28.199219 5.523438 C 28.023438 5.414062 27.835938 5.324219 27.652344 5.230469 C 27.472656 5.132812 27.277344 5.058594 27.089844 4.972656 C 26.902344 4.890625 26.707031 4.824219 26.515625 4.75 L 25.929688 4.570312 C 25.730469 4.519531 25.535156 4.460938 25.335938 4.421875 C 24.9375 4.335938 24.535156 4.269531 24.132812 4.234375 C 23.933594 4.21875 23.730469 4.199219 23.535156 4.199219 L 23.246094 4.1875 L 22.925781 4.195312 C 22.523438 4.195312 22.125 4.242188 21.730469 4.296875 C 20.945312 4.410156 20.175781 4.621094 19.457031 4.921875 C 18.730469 5.222656 18.050781 5.605469 17.433594 6.066406 C 16.8125 6.523438 16.253906 7.058594 15.773438 7.648438 C 15.296875 8.238281 14.886719 8.875 14.574219 9.554688 L 14.292969 10.15625 L 13.15625 10.15625 C 13.210938 10.15625 13.164062 10.15625 13.175781 10.160156 L 13.136719 10.160156 C 13.011719 10.171875 12.882812 10.171875 12.753906 10.1875 C 12.628906 10.203125 12.5 10.214844 12.375 10.238281 C 12.25 10.257812 12.125 10.285156 12 10.3125 C 11.503906 10.417969 11.023438 10.589844 10.574219 10.816406 C 9.671875 11.265625 8.894531 11.933594 8.320312 12.734375 C 8.035156 13.136719 7.800781 13.570312 7.621094 14.023438 C 7.449219 14.480469 7.324219 14.953125 7.265625 15.4375 C 7.234375 15.675781 7.222656 15.921875 7.222656 16.164062 L 7.226562 16.324219 L 7.226562 16.449219 L 7.234375 16.503906 L 7.25 16.726562 L 7.261719 16.835938 C 7.261719 16.871094 7.257812 16.804688 7.257812 16.8125 L 7.261719 16.824219 L 7.261719 16.847656 L 7.269531 16.894531 C 7.332031 17.375 7.449219 17.847656 7.625 18.296875 C 7.972656 19.195312 8.558594 20.003906 9.308594 20.621094 C 10.058594 21.246094 10.964844 21.6875 11.933594 21.898438 C 12.175781 21.953125 12.421875 21.984375 12.667969 22.011719 C 12.730469 22.019531 12.78125 22.019531 12.839844 22.027344 C 12.898438 22.03125 12.941406 22.035156 13.023438 22.035156 L 13.25 22.042969 L 13.308594 22.042969 C 13.25 22.042969 13.300781 22.042969 13.289062 22.042969 L 13.425781 22.042969 C 13.957031 22.042969 14.484375 21.992188 15 21.90625 C 16.03125 21.726562 17.015625 21.347656 17.960938 20.824219 C 18.90625 20.296875 19.804688 19.621094 20.683594 18.875 C 21.566406 18.128906 22.433594 17.316406 23.335938 16.503906 C 24.238281 15.691406 25.1875 14.882812 26.226562 14.152344 C 26.746094 13.785156 27.292969 13.449219 27.863281 13.140625 C 28.003906 13.0625 28.148438 12.988281 28.292969 12.917969 C 28.433594 12.847656 28.601562 12.769531 28.742188 12.707031 L 28.949219 12.617188 C 29.042969 12.574219 29.105469 12.550781 29.1875 12.519531 C 29.339844 12.457031 29.492188 12.390625 29.648438 12.339844 C 30.894531 11.894531 32.277344 11.679688 33.644531 11.878906 C 35.007812 12.070312 36.355469 12.742188 37.21875 13.855469 C 37.4375 14.132812 37.613281 14.4375 37.753906 14.757812 C 37.898438 15.078125 37.996094 15.421875 38.042969 15.765625 C 38.09375 16.113281 38.101562 16.464844 38.050781 16.804688 C 38.039062 16.96875 37.988281 17.167969 37.949219 17.328125 L 37.878906 17.542969 L 37.855469 17.617188 L 37.773438 17.792969 C 37.472656 18.414062 37 18.910156 36.476562 19.28125 C 36.214844 19.464844 35.933594 19.621094 35.644531 19.742188 C 35.355469 19.863281 35.054688 19.957031 34.753906 20.015625 Z M 34.753906 20.015625 " clip-rule="nonzero"/></clipPath><clipPath id="a087f5a033"><path d="M 34.753906 20.015625 C 35.019531 19.855469 35.261719 19.6875 35.488281 19.496094 C 35.710938 19.300781 35.917969 19.097656 36.097656 18.878906 C 36.746094 18.101562 37.101562 16.972656 36.855469 15.976562 C 36.800781 15.738281 36.710938 15.511719 36.589844 15.296875 C 36.472656 15.082031 36.332031 14.878906 36.160156 14.699219 C 35.488281 13.96875 34.484375 13.550781 33.449219 13.484375 C 32.410156 13.402344 31.339844 13.636719 30.34375 14.0625 C 30.214844 14.113281 30.09375 14.175781 29.96875 14.230469 C 29.914062 14.261719 29.835938 14.292969 29.792969 14.316406 L 29.59375 14.421875 C 29.464844 14.492188 29.359375 14.546875 29.238281 14.621094 C 29.117188 14.6875 28.996094 14.761719 28.878906 14.835938 C 28.40625 15.128906 27.953125 15.460938 27.507812 15.8125 C 26.617188 16.511719 25.78125 17.3125 24.941406 18.144531 C 24.097656 18.972656 23.257812 19.839844 22.339844 20.683594 C 21.417969 21.519531 20.417969 22.332031 19.277344 23.011719 C 18.144531 23.699219 16.847656 24.214844 15.503906 24.476562 C 14.828125 24.605469 14.144531 24.679688 13.46875 24.695312 L 13.246094 24.695312 L 12.964844 24.691406 C 12.898438 24.691406 12.789062 24.683594 12.695312 24.679688 C 12.601562 24.671875 12.503906 24.667969 12.414062 24.660156 C 12.058594 24.625 11.707031 24.574219 11.359375 24.5 C 9.964844 24.207031 8.628906 23.582031 7.539062 22.664062 C 6.445312 21.75 5.589844 20.554688 5.089844 19.230469 C 4.832031 18.574219 4.679688 17.878906 4.605469 17.183594 L 4.585938 17.019531 L 4.578125 16.910156 L 4.566406 16.6875 L 4.5625 16.632812 L 4.5625 16.5625 L 4.558594 16.421875 L 4.554688 16.140625 C 4.566406 15.789062 4.589844 15.441406 4.644531 15.09375 C 4.746094 14.402344 4.929688 13.71875 5.207031 13.074219 C 5.484375 12.429688 5.839844 11.820312 6.265625 11.261719 C 6.691406 10.707031 7.191406 10.207031 7.742188 9.769531 C 8.292969 9.335938 8.902344 8.976562 9.546875 8.691406 C 10.1875 8.40625 10.863281 8.203125 11.554688 8.085938 C 11.730469 8.054688 11.902344 8.03125 12.078125 8.015625 C 12.25 7.992188 12.425781 7.984375 12.597656 7.976562 C 12.773438 7.964844 12.949219 7.972656 13.121094 7.96875 L 13.214844 7.96875 L 13.273438 7.972656 L 13.386719 7.980469 L 13.613281 7.992188 L 12.59375 8.59375 C 13.039062 7.773438 13.585938 7.007812 14.226562 6.332031 C 14.867188 5.65625 15.589844 5.058594 16.375 4.566406 C 17.164062 4.078125 18.011719 3.6875 18.890625 3.410156 C 19.773438 3.132812 20.6875 2.980469 21.601562 2.9375 C 22.054688 2.914062 22.511719 2.917969 22.964844 2.964844 L 23.285156 2.992188 L 23.632812 3.039062 C 23.867188 3.066406 24.085938 3.113281 24.308594 3.15625 C 24.75 3.246094 25.179688 3.375 25.605469 3.519531 C 25.816406 3.589844 26.019531 3.679688 26.230469 3.757812 C 26.433594 3.847656 26.632812 3.945312 26.832031 4.039062 C 27.027344 4.148438 27.222656 4.246094 27.414062 4.359375 C 27.597656 4.480469 27.789062 4.585938 27.96875 4.714844 C 28.148438 4.84375 28.328125 4.964844 28.496094 5.101562 L 28.753906 5.304688 C 28.835938 5.375 28.917969 5.449219 28.996094 5.519531 C 29.160156 5.660156 29.316406 5.8125 29.464844 5.96875 C 29.621094 6.117188 29.757812 6.285156 29.898438 6.445312 C 30.042969 6.601562 30.167969 6.777344 30.300781 6.941406 C 30.425781 7.113281 30.542969 7.292969 30.660156 7.464844 C 30.363281 7.164062 30.0625 6.867188 29.738281 6.597656 C 29.574219 6.464844 29.417969 6.328125 29.246094 6.207031 L 28.992188 6.023438 C 28.90625 5.964844 28.816406 5.910156 28.730469 5.851562 C 28.644531 5.796875 28.558594 5.734375 28.46875 5.683594 L 28.199219 5.523438 C 28.023438 5.414062 27.835938 5.324219 27.652344 5.230469 C 27.472656 5.132812 27.277344 5.058594 27.089844 4.972656 C 26.902344 4.890625 26.707031 4.824219 26.515625 4.75 L 25.929688 4.570312 C 25.730469 4.519531 25.535156 4.460938 25.335938 4.421875 C 24.9375 4.335938 24.535156 4.269531 24.132812 4.234375 C 23.933594 4.21875 23.730469 4.199219 23.535156 4.199219 L 23.246094 4.1875 L 22.925781 4.195312 C 22.523438 4.195312 22.125 4.242188 21.730469 4.296875 C 20.945312 4.410156 20.175781 4.621094 19.457031 4.921875 C 18.730469 5.222656 18.050781 5.605469 17.433594 6.066406 C 16.8125 6.523438 16.253906 7.058594 15.773438 7.648438 C 15.296875 8.238281 14.886719 8.875 14.574219 9.554688 L 14.292969 10.15625 L 13.15625 10.15625 C 13.210938 10.15625 13.164062 10.15625 13.175781 10.160156 L 13.136719 10.160156 C 13.011719 10.171875 12.882812 10.171875 12.753906 10.1875 C 12.628906 10.203125 12.5 10.214844 12.375 10.238281 C 12.25 10.257812 12.125 10.285156 12 10.3125 C 11.503906 10.417969 11.023438 10.589844 10.574219 10.816406 C 9.671875 11.265625 8.894531 11.933594 8.320312 12.734375 C 8.035156 13.136719 7.800781 13.570312 7.621094 14.023438 C 7.449219 14.480469 7.324219 14.953125 7.265625 15.4375 C 7.234375 15.675781 7.222656 15.921875 7.222656 16.164062 L 7.226562 16.324219 L 7.226562 16.449219 L 7.234375 16.503906 L 7.25 16.726562 L 7.261719 16.835938 C 7.261719 16.871094 7.257812 16.804688 7.257812 16.8125 L 7.261719 16.824219 L 7.261719 16.847656 L 7.269531 16.894531 C 7.332031 17.375 7.449219 17.847656 7.625 18.296875 C 7.972656 19.195312 8.558594 20.003906 9.308594 20.621094 C 10.058594 21.246094 10.964844 21.6875 11.933594 21.898438 C 12.175781 21.953125 12.421875 21.984375 12.667969 22.011719 C 12.730469 22.019531 12.78125 22.019531 12.839844 22.027344 C 12.898438 22.03125 12.941406 22.035156 13.023438 22.035156 L 13.25 22.042969 L 13.308594 22.042969 C 13.25 22.042969 13.300781 22.042969 13.289062 22.042969 L 13.425781 22.042969 C 13.957031 22.042969 14.484375 21.992188 15 21.90625 C 16.03125 21.726562 17.015625 21.347656 17.960938 20.824219 C 18.90625 20.296875 19.804688 19.621094 20.683594 18.875 C 21.566406 18.128906 22.433594 17.316406 23.335938 16.503906 C 24.238281 15.691406 25.1875 14.882812 26.226562 14.152344 C 26.746094 13.785156 27.292969 13.449219 27.863281 13.140625 C 28.003906 13.0625 28.148438 12.988281 28.292969 12.917969 C 28.433594 12.847656 28.601562 12.769531 28.742188 12.707031 L 28.949219 12.617188 C 29.042969 12.574219 29.105469 12.550781 29.1875 12.519531 C 29.339844 12.457031 29.492188 12.390625 29.648438 12.339844 C 30.894531 11.894531 32.277344 11.679688 33.644531 11.878906 C 35.007812 12.070312 36.355469 12.742188 37.21875 13.855469 C 37.4375 14.132812 37.613281 14.4375 37.753906 14.757812 C 37.898438 15.078125 37.996094 15.421875 38.042969 15.765625 C 38.09375 16.113281 38.101562 16.464844 38.050781 16.804688 C 38.039062 16.96875 37.988281 17.167969 37.949219 17.328125 L 37.878906 17.542969 L 37.855469 17.617188 L 37.773438 17.792969 C 37.472656 18.414062 37 18.910156 36.476562 19.28125 C 36.214844 19.464844 35.933594 19.621094 35.644531 19.742188 C 35.355469 19.863281 35.054688 19.957031 34.753906 20.015625 " clip-rule="nonzero"/></clipPath><clipPath id="40333517d2"><path d="M 48.277344 9.441406 L 14.605469 -12.148438 L -5.621094 18.171875 L 28.050781 39.761719 Z M 48.277344 9.441406 " clip-rule="nonzero"/></clipPath><radialGradient gradientTransform="matrix(-0.552726, 0.828597, -0.845169, -0.541888, 28.625496, 1.946081)" gradientUnits="userSpaceOnUse" r="30.410325" cx="0" id="c110628d96" cy="0" fx="0" fy="0"><stop stop-opacity="1" stop-color="rgb(31.604004%, 67.652893%, 89.7995%)" offset="0"/><stop stop-opacity="1" stop-color="rgb(31.404114%, 67.501831%, 89.608765%)" offset="0.00390625"/><stop stop-opacity="1" stop-color="rgb(31.399536%, 67.312622%, 89.408875%)" offset="0.0078125"/><stop stop-opacity="1" stop-color="rgb(31.217957%, 67.112732%, 89.399719%)" offset="0.0117188"/><stop stop-opacity="1" stop-color="rgb(31.018066%, 66.921997%, 89.222717%)" offset="0.015625"/><stop stop-opacity="1" stop-color="rgb(30.999756%, 66.522217%, 88.999939%)" offset="0.0195312"/><stop stop-opacity="1" stop-color="rgb(30.999756%, 66.281128%, 88.777161%)" offset="0.0234375"/><stop stop-opacity="1" stop-color="rgb(30.999756%, 66.069031%, 88.586426%)" offset="0.0273438"/><stop stop-opacity="1" stop-color="rgb(30.990601%, 65.686035%, 88.386536%)" offset="0.03125"/><stop stop-opacity="1" stop-color="rgb(30.79071%, 65.4953%, 88.198853%)" offset="0.0351562"/><stop stop-opacity="1" stop-color="rgb(30.599976%, 65.296936%, 88.198853%)" offset="0.0390625"/><stop stop-opacity="1" stop-color="rgb(30.599976%, 65.100098%, 88.005066%)" offset="0.0429688"/><stop stop-opacity="1" stop-color="rgb(30.599976%, 64.909363%, 87.805176%)" offset="0.046875"/><stop stop-opacity="1" stop-color="rgb(30.599976%, 64.709473%, 87.799072%)" offset="0.0507812"/><stop stop-opacity="1" stop-color="rgb(30.599976%, 64.518738%, 87.663269%)" offset="0.0546875"/><stop stop-opacity="1" stop-color="rgb(30.4245%, 64.318848%, 87.513733%)" offset="0.0585938"/><stop stop-opacity="1" stop-color="rgb(30.223083%, 64.099121%, 87.478638%)" offset="0.0625"/><stop stop-opacity="1" stop-color="rgb(30.183411%, 63.883972%, 87.278748%)" offset="0.0664062"/><stop stop-opacity="1" stop-color="rgb(29.983521%, 63.673401%, 87.098694%)" offset="0.0703125"/><stop stop-opacity="1" stop-color="rgb(29.798889%, 63.288879%, 87.09259%)" offset="0.0742188"/><stop stop-opacity="1" stop-color="rgb(29.798889%, 63.098145%, 86.8927%)" offset="0.078125"/><stop stop-opacity="1" stop-color="rgb(29.798889%, 62.901306%, 86.698914%)" offset="0.0820312"/><stop stop-opacity="1" stop-color="rgb(29.798889%, 62.557983%, 86.698914%)" offset="0.0859375"/><stop stop-opacity="1" stop-color="rgb(29.611206%, 62.405396%, 86.51123%)" offset="0.0898438"/><stop stop-opacity="1" stop-color="rgb(29.411316%, 62.216187%, 86.31134%)" offset="0.09375"/><stop stop-opacity="1" stop-color="rgb(29.399109%, 62.016296%, 86.299133%)" offset="0.0976562"/><stop stop-opacity="1" stop-color="rgb(29.399109%, 61.799622%, 86.099243%)" offset="0.101562"/><stop stop-opacity="1" stop-color="rgb(29.399109%, 61.579895%, 85.899353%)" offset="0.105469"/><stop stop-opacity="1" stop-color="rgb(29.399109%, 61.380005%, 85.884094%)" offset="0.109375"/><stop stop-opacity="1" stop-color="rgb(29.389954%, 61.18927%, 85.684204%)" offset="0.113281"/><stop stop-opacity="1" stop-color="rgb(29.190063%, 60.98938%, 85.494995%)" offset="0.117188"/><stop stop-opacity="1" stop-color="rgb(28.999329%, 60.798645%, 85.295105%)" offset="0.121094"/><stop stop-opacity="1" stop-color="rgb(28.999329%, 60.603333%, 85.099792%)" offset="0.125"/><stop stop-opacity="1" stop-color="rgb(28.999329%, 60.403442%, 85.099792%)" offset="0.128906"/><stop stop-opacity="1" stop-color="rgb(28.999329%, 60.212708%, 84.913635%)" offset="0.132812"/><stop stop-opacity="1" stop-color="rgb(28.999329%, 60.012817%, 84.712219%)" offset="0.136719"/><stop stop-opacity="1" stop-color="rgb(28.822327%, 59.822083%, 84.698486%)" offset="0.140625"/><stop stop-opacity="1" stop-color="rgb(28.622437%, 59.422302%, 84.498596%)" offset="0.144531"/><stop stop-opacity="1" stop-color="rgb(28.581238%, 59.181213%, 84.281921%)" offset="0.148438"/><stop stop-opacity="1" stop-color="rgb(28.381348%, 58.969116%, 84.082031%)" offset="0.152344"/><stop stop-opacity="1" stop-color="rgb(28.199768%, 58.586121%, 83.898926%)" offset="0.15625"/><stop stop-opacity="1" stop-color="rgb(28.199768%, 58.395386%, 83.898926%)" offset="0.160156"/><stop stop-opacity="1" stop-color="rgb(28.199768%, 58.197021%, 83.898926%)" offset="0.164062"/><stop stop-opacity="1" stop-color="rgb(28.199768%, 58.000183%, 83.705139%)" offset="0.167969"/><stop stop-opacity="1" stop-color="rgb(28.199768%, 57.809448%, 83.505249%)" offset="0.171875"/><stop stop-opacity="1" stop-color="rgb(28.015137%, 57.609558%, 83.499146%)" offset="0.175781"/><stop stop-opacity="1" stop-color="rgb(27.815247%, 57.4646%, 83.319092%)" offset="0.179688"/><stop stop-opacity="1" stop-color="rgb(27.799988%, 57.315063%, 83.119202%)" offset="0.183594"/><stop stop-opacity="1" stop-color="rgb(27.799988%, 57.098389%, 83.078003%)" offset="0.1875"/><stop stop-opacity="1" stop-color="rgb(27.799988%, 56.898499%, 82.878113%)" offset="0.191406"/><stop stop-opacity="1" stop-color="rgb(27.799988%, 56.887817%, 82.69043%)" offset="0.195312"/><stop stop-opacity="1" stop-color="rgb(27.799988%, 56.681824%, 82.540894%)" offset="0.199219"/><stop stop-opacity="1" stop-color="rgb(27.798462%, 56.292725%, 82.398987%)" offset="0.203125"/><stop stop-opacity="1" stop-color="rgb(27.650452%, 56.098938%, 82.398987%)" offset="0.207031"/><stop stop-opacity="1" stop-color="rgb(27.500916%, 55.906677%, 82.206726%)" offset="0.210938"/><stop stop-opacity="1" stop-color="rgb(27.49939%, 55.706787%, 82.006836%)" offset="0.214844"/><stop stop-opacity="1" stop-color="rgb(27.49939%, 55.516052%, 81.816101%)" offset="0.21875"/><stop stop-opacity="1" stop-color="rgb(27.49939%, 55.137634%, 81.616211%)" offset="0.222656"/><stop stop-opacity="1" stop-color="rgb(27.2995%, 54.896545%, 81.599426%)" offset="0.226562"/><stop stop-opacity="1" stop-color="rgb(27.099609%, 54.675293%, 81.57959%)" offset="0.230469"/><stop stop-opacity="1" stop-color="rgb(27.084351%, 54.484558%, 81.3797%)" offset="0.234375"/><stop stop-opacity="1" stop-color="rgb(26.88446%, 54.284668%, 81.199646%)" offset="0.238281"/><stop stop-opacity="1" stop-color="rgb(26.699829%, 54.093933%, 81.195068%)" offset="0.242188"/><stop stop-opacity="1" stop-color="rgb(26.699829%, 53.894043%, 80.995178%)" offset="0.246094"/><stop stop-opacity="1" stop-color="rgb(26.699829%, 53.69873%, 80.799866%)" offset="0.25"/><stop stop-opacity="1" stop-color="rgb(26.699829%, 53.507996%, 80.799866%)" offset="0.253906"/><stop stop-opacity="1" stop-color="rgb(26.699829%, 53.308105%, 80.618286%)" offset="0.257812"/><stop stop-opacity="1" stop-color="rgb(26.699829%, 53.121948%, 80.41687%)" offset="0.265625"/><stop stop-opacity="1" stop-color="rgb(26.498413%, 52.722168%, 80.198669%)" offset="0.269531"/><stop stop-opacity="1" stop-color="rgb(26.298523%, 52.485657%, 79.981995%)" offset="0.273438"/><stop stop-opacity="1" stop-color="rgb(26.298523%, 52.328491%, 79.782104%)" offset="0.277344"/><stop stop-opacity="1" stop-color="rgb(26.295471%, 51.991272%, 79.595947%)" offset="0.285156"/><stop stop-opacity="1" stop-color="rgb(26.097107%, 51.799011%, 79.397583%)" offset="0.289062"/><stop stop-opacity="1" stop-color="rgb(25.900269%, 51.605225%, 79.200745%)" offset="0.292969"/><stop stop-opacity="1" stop-color="rgb(25.898743%, 51.220703%, 79.014587%)" offset="0.296875"/><stop stop-opacity="1" stop-color="rgb(25.718689%, 51.014709%, 78.814697%)" offset="0.304688"/><stop stop-opacity="1" stop-color="rgb(25.518799%, 50.823975%, 78.799438%)" offset="0.308594"/><stop stop-opacity="1" stop-color="rgb(25.498962%, 50.602722%, 78.778076%)" offset="0.3125"/><stop stop-opacity="1" stop-color="rgb(25.498962%, 50.367737%, 78.578186%)" offset="0.316406"/><stop stop-opacity="1" stop-color="rgb(25.498962%, 49.987793%, 78.393555%)" offset="0.324219"/><stop stop-opacity="1" stop-color="rgb(25.498962%, 49.797058%, 78.193665%)" offset="0.328125"/><stop stop-opacity="1" stop-color="rgb(25.498962%, 49.60022%, 77.999878%)" offset="0.332031"/><stop stop-opacity="1" stop-color="rgb(25.306702%, 49.401855%, 77.999878%)" offset="0.335938"/><stop stop-opacity="1" stop-color="rgb(25.106812%, 49.211121%, 77.999878%)" offset="0.339844"/><stop stop-opacity="1" stop-color="rgb(25.099182%, 49.01123%, 77.816772%)" offset="0.34375"/><stop stop-opacity="1" stop-color="rgb(25.099182%, 48.820496%, 77.615356%)" offset="0.347656"/><stop stop-opacity="1" stop-color="rgb(25.099182%, 48.597717%, 77.449036%)" offset="0.351562"/><stop stop-opacity="1" stop-color="rgb(25.099182%, 48.374939%, 77.279663%)" offset="0.355469"/><stop stop-opacity="1" stop-color="rgb(25.099182%, 48.184204%, 77.079773%)" offset="0.359375"/><stop stop-opacity="1" stop-color="rgb(25.090027%, 47.984314%, 76.899719%)" offset="0.363281"/><stop stop-opacity="1" stop-color="rgb(24.890137%, 47.795105%, 76.895142%)" offset="0.367188"/><stop stop-opacity="1" stop-color="rgb(24.699402%, 47.645569%, 76.695251%)" offset="0.371094"/><stop stop-opacity="1" stop-color="rgb(24.508667%, 47.30835%, 76.499939%)" offset="0.378906"/><stop stop-opacity="1" stop-color="rgb(24.308777%, 46.92688%, 76.318359%)" offset="0.382812"/><stop stop-opacity="1" stop-color="rgb(24.299622%, 46.717834%, 76.116943%)" offset="0.390625"/><stop stop-opacity="1" stop-color="rgb(24.299622%, 46.499634%, 76.077271%)" offset="0.394531"/><stop stop-opacity="1" stop-color="rgb(24.299622%, 46.286011%, 75.87738%)" offset="0.398438"/><stop stop-opacity="1" stop-color="rgb(24.299622%, 46.086121%, 75.691223%)" offset="0.40625"/><stop stop-opacity="1" stop-color="rgb(24.29657%, 45.895386%, 75.491333%)" offset="0.410156"/><stop stop-opacity="1" stop-color="rgb(24.098206%, 45.697021%, 75.299072%)" offset="0.414062"/><stop stop-opacity="1" stop-color="rgb(23.901367%, 45.306396%, 75.299072%)" offset="0.417969"/><stop stop-opacity="1" stop-color="rgb(23.899841%, 45.10498%, 75.109863%)" offset="0.421875"/><stop stop-opacity="1" stop-color="rgb(23.899841%, 44.914246%, 74.909973%)" offset="0.425781"/><stop stop-opacity="1" stop-color="rgb(23.899841%, 44.540405%, 74.723816%)" offset="0.429688"/><stop stop-opacity="1" stop-color="rgb(23.899841%, 44.32373%, 74.504089%)" offset="0.4375"/><stop stop-opacity="1" stop-color="rgb(23.883057%, 44.282532%, 74.278259%)" offset="0.441406"/><stop stop-opacity="1" stop-color="rgb(23.683167%, 44.076538%, 74.099731%)" offset="0.445312"/><stop stop-opacity="1" stop-color="rgb(23.497009%, 43.693542%, 74.098206%)" offset="0.453125"/><stop stop-opacity="1" stop-color="rgb(23.300171%, 43.499756%, 73.901367%)" offset="0.457031"/><stop stop-opacity="1" stop-color="rgb(23.101807%, 43.307495%, 73.703003%)" offset="0.460938"/><stop stop-opacity="1" stop-color="rgb(23.098755%, 43.107605%, 73.516846%)" offset="0.464844"/><stop stop-opacity="1" stop-color="rgb(23.098755%, 42.921448%, 73.31543%)" offset="0.472656"/><stop stop-opacity="1" stop-color="rgb(23.098755%, 42.570496%, 73.275757%)" offset="0.476562"/><stop stop-opacity="1" stop-color="rgb(23.098755%, 42.379761%, 73.075867%)" offset="0.480469"/><stop stop-opacity="1" stop-color="rgb(23.098755%, 42.170715%, 72.889709%)" offset="0.484375"/><stop stop-opacity="1" stop-color="rgb(23.094177%, 41.789246%, 72.689819%)" offset="0.492188"/><stop stop-opacity="1" stop-color="rgb(22.894287%, 41.598511%, 72.499084%)" offset="0.496094"/><stop stop-opacity="1" stop-color="rgb(22.698975%, 41.407776%, 72.499084%)" offset="0.503906"/><stop stop-opacity="1" stop-color="rgb(22.698975%, 41.207886%, 72.358704%)" offset="0.507812"/><stop stop-opacity="1" stop-color="rgb(22.698975%, 41.017151%, 72.209167%)" offset="0.511719"/><stop stop-opacity="1" stop-color="rgb(22.566223%, 40.817261%, 72.021484%)" offset="0.515625"/><stop stop-opacity="1" stop-color="rgb(22.416687%, 40.59906%, 71.821594%)" offset="0.519531"/><stop stop-opacity="1" stop-color="rgb(22.399902%, 40.39917%, 71.781921%)" offset="0.523438"/><stop stop-opacity="1" stop-color="rgb(22.399902%, 40.386963%, 71.582031%)" offset="0.527344"/><stop stop-opacity="1" stop-color="rgb(22.399902%, 40.187073%, 71.398926%)" offset="0.53125"/><stop stop-opacity="1" stop-color="rgb(22.399902%, 39.996338%, 71.398926%)" offset="0.535156"/><stop stop-opacity="1" stop-color="rgb(22.399902%, 39.797974%, 71.398926%)" offset="0.539062"/><stop stop-opacity="1" stop-color="rgb(22.206116%, 39.601135%, 71.205139%)" offset="0.542969"/><stop stop-opacity="1" stop-color="rgb(22.0047%, 39.4104%, 71.005249%)" offset="0.546875"/><stop stop-opacity="1" stop-color="rgb(21.998596%, 39.21051%, 70.814514%)" offset="0.550781"/><stop stop-opacity="1" stop-color="rgb(21.998596%, 39.019775%, 70.614624%)" offset="0.554688"/><stop stop-opacity="1" stop-color="rgb(21.998596%, 38.818359%, 70.599365%)" offset="0.558594"/><stop stop-opacity="1" stop-color="rgb(21.998596%, 38.598633%, 70.578003%)" offset="0.5625"/><stop stop-opacity="1" stop-color="rgb(21.998596%, 38.383484%, 70.378113%)" offset="0.566406"/><stop stop-opacity="1" stop-color="rgb(21.99707%, 38.182068%, 70.198059%)" offset="0.570312"/><stop stop-opacity="1" stop-color="rgb(21.800232%, 37.800598%, 70.001221%)" offset="0.582031"/><stop stop-opacity="1" stop-color="rgb(21.601868%, 37.451172%, 69.619751%)" offset="0.585938"/><stop stop-opacity="1" stop-color="rgb(21.420288%, 37.298584%, 69.415283%)" offset="0.597656"/><stop stop-opacity="1" stop-color="rgb(21.220398%, 37.098694%, 69.198608%)" offset="0.601562"/><stop stop-opacity="1" stop-color="rgb(21.199036%, 36.880493%, 68.998718%)" offset="0.605469"/><stop stop-opacity="1" stop-color="rgb(21.199036%, 36.680603%, 68.984985%)" offset="0.609375"/><stop stop-opacity="1" stop-color="rgb(21.199036%, 36.489868%, 68.785095%)" offset="0.613281"/><stop stop-opacity="1" stop-color="rgb(21.199036%, 36.289978%, 68.598938%)" offset="0.617188"/><stop stop-opacity="1" stop-color="rgb(21.199036%, 36.099243%, 68.598938%)" offset="0.621094"/><stop stop-opacity="1" stop-color="rgb(21.199036%, 35.903931%, 68.403625%)" offset="0.625"/><stop stop-opacity="1" stop-color="rgb(21.199036%, 35.704041%, 68.203735%)" offset="0.628906"/><stop stop-opacity="1" stop-color="rgb(21.199036%, 35.517883%, 68.199158%)" offset="0.636719"/><stop stop-opacity="1" stop-color="rgb(21.022034%, 35.317993%, 68.022156%)" offset="0.640625"/><stop stop-opacity="1" stop-color="rgb(20.822144%, 35.099792%, 67.822266%)" offset="0.644531"/><stop stop-opacity="1" stop-color="rgb(20.799255%, 34.886169%, 67.790222%)" offset="0.648438"/><stop stop-opacity="1" stop-color="rgb(20.799255%, 34.683228%, 67.63916%)" offset="0.65625"/><stop stop-opacity="1" stop-color="rgb(20.799255%, 34.29718%, 67.498779%)" offset="0.664062"/><stop stop-opacity="1" stop-color="rgb(20.605469%, 34.100342%, 67.304993%)" offset="0.667969"/><stop stop-opacity="1" stop-color="rgb(20.405579%, 33.914185%, 67.105103%)" offset="0.671875"/><stop stop-opacity="1" stop-color="rgb(20.399475%, 33.714294%, 66.918945%)" offset="0.679688"/><stop stop-opacity="1" stop-color="rgb(20.399475%, 33.52356%, 66.719055%)" offset="0.683594"/><stop stop-opacity="1" stop-color="rgb(20.399475%, 33.303833%, 66.499329%)" offset="0.6875"/><stop stop-opacity="1" stop-color="rgb(20.399475%, 33.067322%, 66.299438%)" offset="0.691406"/><stop stop-opacity="1" stop-color="rgb(20.393372%, 32.688904%, 66.293335%)" offset="0.699219"/><stop stop-opacity="1" stop-color="rgb(20.193481%, 32.348633%, 66.093445%)" offset="0.703125"/><stop stop-opacity="1" stop-color="rgb(19.999695%, 32.199097%, 65.716553%)" offset="0.71875"/><stop stop-opacity="1" stop-color="rgb(19.999695%, 32.020569%, 65.516663%)" offset="0.722656"/><stop stop-opacity="1" stop-color="rgb(19.999695%, 31.797791%, 65.475464%)" offset="0.726562"/><stop stop-opacity="1" stop-color="rgb(19.979858%, 31.575012%, 65.275574%)" offset="0.730469"/><stop stop-opacity="1" stop-color="rgb(19.779968%, 31.390381%, 65.089417%)" offset="0.734375"/><stop stop-opacity="1" stop-color="rgb(19.599915%, 31.190491%, 64.889526%)" offset="0.742188"/><stop stop-opacity="1" stop-color="rgb(19.599915%, 30.804443%, 64.503479%)" offset="0.75"/><stop stop-opacity="1" stop-color="rgb(19.599915%, 30.604553%, 64.303589%)" offset="0.753906"/><stop stop-opacity="1" stop-color="rgb(19.599915%, 30.413818%, 64.299011%)" offset="0.757812"/><stop stop-opacity="1" stop-color="rgb(19.599915%, 30.212402%, 64.299011%)" offset="0.761719"/><stop stop-opacity="1" stop-color="rgb(19.599915%, 30.198669%, 64.122009%)" offset="0.765625"/><stop stop-opacity="1" stop-color="rgb(19.398499%, 29.998779%, 63.922119%)" offset="0.769531"/><stop stop-opacity="1" stop-color="rgb(19.198608%, 29.798889%, 63.899231%)" offset="0.773438"/><stop stop-opacity="1" stop-color="rgb(19.198608%, 29.786682%, 63.887024%)" offset="0.777344"/><stop stop-opacity="1" stop-color="rgb(19.198608%, 29.586792%, 63.687134%)" offset="0.78125"/><stop stop-opacity="1" stop-color="rgb(19.198608%, 29.396057%, 63.499451%)" offset="0.785156"/><stop stop-opacity="1" stop-color="rgb(19.198608%, 29.197693%, 63.499451%)" offset="0.789062"/><stop stop-opacity="1" stop-color="rgb(19.198608%, 29.000854%, 63.305664%)" offset="0.792969"/><stop stop-opacity="1" stop-color="rgb(19.198608%, 28.999329%, 63.105774%)" offset="0.796875"/><stop stop-opacity="1" stop-color="rgb(19.198608%, 28.814697%, 63.09967%)" offset="0.800781"/><stop stop-opacity="1" stop-color="rgb(19.198608%, 28.614807%, 63.09967%)" offset="0.804688"/><stop stop-opacity="1" stop-color="rgb(19.198608%, 28.599548%, 62.924194%)" offset="0.808594"/><stop stop-opacity="1" stop-color="rgb(18.998718%, 28.399658%, 62.709045%)" offset="0.8125"/><stop stop-opacity="1" stop-color="rgb(18.798828%, 28.182983%, 62.533569%)" offset="0.816406"/><stop stop-opacity="1" stop-color="rgb(18.798828%, 27.978516%, 62.393188%)" offset="0.820312"/><stop stop-opacity="1" stop-color="rgb(18.798828%, 27.644348%, 62.193298%)" offset="0.828125"/><stop stop-opacity="1" stop-color="rgb(18.798828%, 27.311707%, 61.999512%)" offset="0.835938"/><stop stop-opacity="1" stop-color="rgb(18.615723%, 27.111816%, 61.816406%)" offset="0.84375"/><stop stop-opacity="1" stop-color="rgb(18.415833%, 27.099609%, 61.616516%)" offset="0.847656"/><stop stop-opacity="1" stop-color="rgb(18.399048%, 26.899719%, 61.599731%)" offset="0.851562"/><stop stop-opacity="1" stop-color="rgb(18.399048%, 26.699829%, 61.579895%)" offset="0.855469"/><stop stop-opacity="1" stop-color="rgb(18.399048%, 26.68457%, 61.380005%)" offset="0.859375"/><stop stop-opacity="1" stop-color="rgb(18.399048%, 26.48468%, 61.193848%)" offset="0.863281"/><stop stop-opacity="1" stop-color="rgb(18.399048%, 26.10321%, 60.993958%)" offset="0.871094"/><stop stop-opacity="1" stop-color="rgb(18.399048%, 25.90332%, 60.798645%)" offset="0.878906"/><stop stop-opacity="1" stop-color="rgb(18.399048%, 25.712585%, 60.612488%)" offset="0.882812"/><stop stop-opacity="1" stop-color="rgb(18.399048%, 25.512695%, 60.412598%)" offset="0.886719"/><stop stop-opacity="1" stop-color="rgb(18.399048%, 25.498962%, 60.398865%)" offset="0.890625"/><stop stop-opacity="1" stop-color="rgb(18.199158%, 25.299072%, 60.198975%)" offset="0.894531"/><stop stop-opacity="1" stop-color="rgb(17.999268%, 25.099182%, 59.999084%)" offset="0.898438"/><stop stop-opacity="1" stop-color="rgb(17.999268%, 25.086975%, 59.986877%)" offset="0.902344"/><stop stop-opacity="1" stop-color="rgb(17.999268%, 24.887085%, 59.786987%)" offset="0.90625"/><stop stop-opacity="1" stop-color="rgb(17.999268%, 24.505615%, 59.599304%)" offset="0.917969"/><stop stop-opacity="1" stop-color="rgb(17.999268%, 24.305725%, 59.410095%)" offset="0.921875"/><stop stop-opacity="1" stop-color="rgb(17.999268%, 24.119568%, 59.210205%)" offset="0.925781"/><stop stop-opacity="1" stop-color="rgb(17.823792%, 23.919678%, 59.199524%)" offset="0.933594"/><stop stop-opacity="1" stop-color="rgb(17.623901%, 23.698425%, 58.999634%)" offset="0.9375"/><stop stop-opacity="1" stop-color="rgb(17.599487%, 23.483276%, 58.799744%)" offset="0.941406"/><stop stop-opacity="1" stop-color="rgb(17.599487%, 23.283386%, 58.787537%)" offset="0.945312"/><stop stop-opacity="1" stop-color="rgb(17.599487%, 23.098755%, 58.587646%)" offset="0.949219"/><stop stop-opacity="1" stop-color="rgb(17.599487%, 22.906494%, 58.399963%)" offset="0.960938"/><stop stop-opacity="1" stop-color="rgb(17.459106%, 22.706604%, 58.21228%)" offset="0.964844"/><stop stop-opacity="1" stop-color="rgb(17.308044%, 22.564697%, 58.010864%)" offset="0.96875"/><stop stop-opacity="1" stop-color="rgb(17.298889%, 22.415161%, 57.798767%)" offset="0.976562"/><stop stop-opacity="1" stop-color="rgb(17.298889%, 22.380066%, 57.598877%)" offset="0.980469"/><stop stop-opacity="1" stop-color="rgb(17.298889%, 22.180176%, 57.449341%)" offset="0.984375"/><stop stop-opacity="1" stop-color="rgb(17.298889%, 21.998596%, 57.299805%)" offset="1"/></radialGradient><clipPath id="76eecfb10d"><path d="M 8.253906 7.347656 L 41.554688 7.347656 L 41.554688 23.472656 L 8.253906 23.472656 Z M 8.253906 7.347656 " clip-rule="nonzero"/></clipPath><clipPath id="3dfd06d535"><path d="M 28.4375 21.320312 C 28.4375 21.320312 28.492188 21.351562 28.59375 21.414062 C 28.691406 21.480469 28.847656 21.566406 29.046875 21.675781 C 29.449219 21.890625 30.066406 22.167969 30.878906 22.359375 C 31.6875 22.546875 32.710938 22.636719 33.804688 22.429688 C 33.949219 22.402344 34.113281 22.378906 34.25 22.34375 C 34.382812 22.308594 34.515625 22.269531 34.652344 22.230469 C 34.785156 22.199219 34.925781 22.132812 35.066406 22.082031 C 35.207031 22.03125 35.347656 21.980469 35.484375 21.910156 C 36.042969 21.660156 36.585938 21.3125 37.082031 20.878906 C 38.074219 20.027344 38.882812 18.808594 39.183594 17.40625 C 39.210938 17.230469 39.242188 17.054688 39.273438 16.875 C 39.292969 16.699219 39.300781 16.515625 39.316406 16.335938 L 39.320312 16.285156 C 39.320312 16.304688 39.324219 16.21875 39.320312 16.324219 L 39.316406 16.242188 L 39.316406 16.082031 L 39.308594 15.757812 C 39.3125 15.519531 39.269531 15.386719 39.25 15.210938 L 39.214844 14.960938 L 39.148438 14.691406 L 39.082031 14.417969 C 39.066406 14.328125 39.023438 14.242188 38.996094 14.152344 C 38.882812 13.796875 38.71875 13.453125 38.535156 13.121094 C 38.160156 12.460938 37.660156 11.855469 37.050781 11.367188 C 36.441406 10.875 35.734375 10.5 34.976562 10.269531 C 34.785156 10.21875 34.589844 10.171875 34.398438 10.125 L 33.804688 10.039062 C 33.609375 10.019531 33.40625 10.023438 33.207031 10.011719 L 33.132812 10.007812 C 33.082031 10.007812 33.175781 10.003906 33.160156 10.007812 L 33.089844 10.007812 L 32.539062 10.03125 L 32.445312 10.035156 C 32.417969 10.035156 32.394531 10.039062 32.371094 10.042969 L 31.925781 10.089844 C 31.722656 10.117188 31.503906 10.164062 31.292969 10.195312 C 31.078125 10.238281 30.871094 10.296875 30.65625 10.34375 L 30.027344 10.53125 C 28.355469 11.070312 26.773438 12.019531 25.285156 13.097656 C 24.914062 13.371094 24.546875 13.652344 24.1875 13.9375 C 23.824219 14.222656 23.460938 14.519531 23.109375 14.8125 C 22.398438 15.40625 21.703125 16.019531 21 16.613281 C 20.300781 17.210938 19.597656 17.8125 18.890625 18.367188 C 18.167969 18.929688 17.421875 19.484375 16.585938 19.921875 C 15.757812 20.363281 14.832031 20.695312 13.882812 20.78125 C 13.765625 20.796875 13.648438 20.796875 13.53125 20.800781 L 13.355469 20.808594 C 13.390625 20.808594 13.28125 20.808594 13.285156 20.808594 L 13.265625 20.808594 L 13.15625 20.800781 C 13.058594 20.792969 12.960938 20.785156 12.863281 20.78125 C 12.753906 20.769531 12.617188 20.746094 12.496094 20.730469 C 12.234375 20.695312 12.03125 20.625 11.8125 20.570312 C 11.597656 20.5 11.390625 20.421875 11.191406 20.328125 C 10.40625 19.953125 9.761719 19.425781 9.289062 18.824219 C 8.824219 18.21875 8.519531 17.554688 8.378906 16.902344 C 8.234375 16.257812 8.25 15.613281 8.351562 15.09375 C 8.445312 14.542969 8.617188 14.074219 8.8125 13.667969 C 9.007812 13.265625 9.234375 12.933594 9.449219 12.671875 C 9.667969 12.402344 9.871094 12.199219 10.046875 12.042969 C 10.132812 11.964844 10.210938 11.898438 10.28125 11.84375 C 10.351562 11.789062 10.414062 11.746094 10.460938 11.710938 C 10.558594 11.644531 10.609375 11.605469 10.609375 11.605469 C 10.609375 11.605469 10.570312 11.652344 10.488281 11.742188 C 10.410156 11.828125 10.300781 11.964844 10.164062 12.148438 C 9.894531 12.507812 9.546875 13.082031 9.328125 13.859375 C 9.222656 14.25 9.140625 14.691406 9.144531 15.160156 C 9.140625 15.652344 9.207031 16.128906 9.394531 16.621094 C 9.582031 17.101562 9.882812 17.574219 10.292969 17.976562 C 10.703125 18.375 11.222656 18.699219 11.800781 18.894531 C 11.871094 18.921875 11.945312 18.933594 12.019531 18.953125 C 12.09375 18.96875 12.167969 18.996094 12.242188 19.007812 C 12.390625 19.027344 12.554688 19.066406 12.679688 19.0625 C 12.75 19.066406 12.804688 19.074219 12.886719 19.074219 C 12.984375 19.070312 13.082031 19.066406 13.179688 19.0625 L 13.253906 19.0625 L 13.292969 19.058594 L 13.308594 19.058594 C 13.328125 19.058594 13.230469 19.058594 13.277344 19.058594 L 13.398438 19.039062 C 13.476562 19.027344 13.554688 19.023438 13.636719 19 C 14.269531 18.871094 14.910156 18.597656 15.535156 18.183594 C 16.164062 17.78125 16.785156 17.261719 17.414062 16.6875 C 18.050781 16.101562 18.695312 15.5 19.355469 14.867188 C 20.015625 14.230469 20.695312 13.585938 21.410156 12.9375 C 22.121094 12.289062 22.871094 11.644531 23.671875 11.03125 C 25.265625 9.800781 27.085938 8.675781 29.164062 7.984375 C 30.210938 7.652344 31.277344 7.433594 32.441406 7.375 L 32.8125 7.363281 L 32.996094 7.355469 L 33.066406 7.355469 C 33.0625 7.355469 33.171875 7.351562 33.136719 7.355469 L 33.246094 7.359375 C 33.535156 7.378906 33.824219 7.386719 34.113281 7.421875 C 34.398438 7.46875 34.683594 7.511719 34.964844 7.566406 C 35.246094 7.640625 35.523438 7.71875 35.796875 7.796875 C 37.988281 8.511719 39.765625 10.128906 40.691406 12.039062 C 40.917969 12.515625 41.113281 13.007812 41.242188 13.507812 C 41.273438 13.636719 41.320312 13.757812 41.339844 13.882812 L 41.40625 14.261719 C 41.425781 14.390625 41.445312 14.515625 41.46875 14.640625 C 41.480469 14.773438 41.488281 14.910156 41.496094 15.042969 C 41.507812 15.304688 41.53125 15.601562 41.511719 15.792969 L 41.492188 16.117188 L 41.484375 16.277344 L 41.480469 16.359375 C 41.476562 16.476562 41.476562 16.402344 41.476562 16.4375 L 41.472656 16.460938 L 41.464844 16.503906 C 41.425781 16.746094 41.398438 16.988281 41.347656 17.226562 C 41.289062 17.460938 41.230469 17.695312 41.167969 17.921875 C 40.882812 18.832031 40.441406 19.660156 39.898438 20.359375 C 39.355469 21.0625 38.722656 21.648438 38.046875 22.105469 C 37.371094 22.558594 36.664062 22.90625 35.957031 23.113281 C 35.785156 23.175781 35.605469 23.214844 35.433594 23.253906 C 35.257812 23.292969 35.09375 23.34375 34.910156 23.363281 C 34.734375 23.386719 34.558594 23.410156 34.386719 23.433594 C 34.21875 23.453125 34.074219 23.449219 33.921875 23.457031 C 32.617188 23.507812 31.527344 23.21875 30.703125 22.867188 C 29.878906 22.515625 29.320312 22.09375 28.960938 21.800781 C 28.78125 21.652344 28.648438 21.53125 28.566406 21.445312 C 28.480469 21.363281 28.4375 21.320312 28.4375 21.320312 Z M 28.4375 21.320312 " clip-rule="nonzero"/></clipPath><clipPath id="cf0686ebfc"><path d="M 28.4375 21.320312 C 28.4375 21.320312 28.492188 21.351562 28.59375 21.414062 C 28.691406 21.480469 28.847656 21.566406 29.046875 21.675781 C 29.449219 21.890625 30.066406 22.167969 30.878906 22.359375 C 31.6875 22.546875 32.710938 22.636719 33.804688 22.429688 C 33.949219 22.402344 34.113281 22.378906 34.25 22.34375 C 34.382812 22.308594 34.515625 22.269531 34.652344 22.230469 C 34.785156 22.199219 34.925781 22.132812 35.066406 22.082031 C 35.207031 22.03125 35.347656 21.980469 35.484375 21.910156 C 36.042969 21.660156 36.585938 21.3125 37.082031 20.878906 C 38.074219 20.027344 38.882812 18.808594 39.183594 17.40625 C 39.210938 17.230469 39.242188 17.054688 39.273438 16.875 C 39.292969 16.699219 39.300781 16.515625 39.316406 16.335938 L 39.320312 16.285156 C 39.320312 16.304688 39.324219 16.21875 39.320312 16.324219 L 39.316406 16.242188 L 39.316406 16.082031 L 39.308594 15.757812 C 39.3125 15.519531 39.269531 15.386719 39.25 15.210938 L 39.214844 14.960938 L 39.148438 14.691406 L 39.082031 14.417969 C 39.066406 14.328125 39.023438 14.242188 38.996094 14.152344 C 38.882812 13.796875 38.71875 13.453125 38.535156 13.121094 C 38.160156 12.460938 37.660156 11.855469 37.050781 11.367188 C 36.441406 10.875 35.734375 10.5 34.976562 10.269531 C 34.785156 10.21875 34.589844 10.171875 34.398438 10.125 L 33.804688 10.039062 C 33.609375 10.019531 33.40625 10.023438 33.207031 10.011719 L 33.132812 10.007812 C 33.082031 10.007812 33.175781 10.003906 33.160156 10.007812 L 33.089844 10.007812 L 32.539062 10.03125 L 32.445312 10.035156 C 32.417969 10.035156 32.394531 10.039062 32.371094 10.042969 L 31.925781 10.089844 C 31.722656 10.117188 31.503906 10.164062 31.292969 10.195312 C 31.078125 10.238281 30.871094 10.296875 30.65625 10.34375 L 30.027344 10.53125 C 28.355469 11.070312 26.773438 12.019531 25.285156 13.097656 C 24.914062 13.371094 24.546875 13.652344 24.1875 13.9375 C 23.824219 14.222656 23.460938 14.519531 23.109375 14.8125 C 22.398438 15.40625 21.703125 16.019531 21 16.613281 C 20.300781 17.210938 19.597656 17.8125 18.890625 18.367188 C 18.167969 18.929688 17.421875 19.484375 16.585938 19.921875 C 15.757812 20.363281 14.832031 20.695312 13.882812 20.78125 C 13.765625 20.796875 13.648438 20.796875 13.53125 20.800781 L 13.355469 20.808594 C 13.390625 20.808594 13.28125 20.808594 13.285156 20.808594 L 13.265625 20.808594 L 13.15625 20.800781 C 13.058594 20.792969 12.960938 20.785156 12.863281 20.78125 C 12.753906 20.769531 12.617188 20.746094 12.496094 20.730469 C 12.234375 20.695312 12.03125 20.625 11.8125 20.570312 C 11.597656 20.5 11.390625 20.421875 11.191406 20.328125 C 10.40625 19.953125 9.761719 19.425781 9.289062 18.824219 C 8.824219 18.21875 8.519531 17.554688 8.378906 16.902344 C 8.234375 16.257812 8.25 15.613281 8.351562 15.09375 C 8.445312 14.542969 8.617188 14.074219 8.8125 13.667969 C 9.007812 13.265625 9.234375 12.933594 9.449219 12.671875 C 9.667969 12.402344 9.871094 12.199219 10.046875 12.042969 C 10.132812 11.964844 10.210938 11.898438 10.28125 11.84375 C 10.351562 11.789062 10.414062 11.746094 10.460938 11.710938 C 10.558594 11.644531 10.609375 11.605469 10.609375 11.605469 C 10.609375 11.605469 10.570312 11.652344 10.488281 11.742188 C 10.410156 11.828125 10.300781 11.964844 10.164062 12.148438 C 9.894531 12.507812 9.546875 13.082031 9.328125 13.859375 C 9.222656 14.25 9.140625 14.691406 9.144531 15.160156 C 9.140625 15.652344 9.207031 16.128906 9.394531 16.621094 C 9.582031 17.101562 9.882812 17.574219 10.292969 17.976562 C 10.703125 18.375 11.222656 18.699219 11.800781 18.894531 C 11.871094 18.921875 11.945312 18.933594 12.019531 18.953125 C 12.09375 18.96875 12.167969 18.996094 12.242188 19.007812 C 12.390625 19.027344 12.554688 19.066406 12.679688 19.0625 C 12.75 19.066406 12.804688 19.074219 12.886719 19.074219 C 12.984375 19.070312 13.082031 19.066406 13.179688 19.0625 L 13.253906 19.0625 L 13.292969 19.058594 L 13.308594 19.058594 C 13.328125 19.058594 13.230469 19.058594 13.277344 19.058594 L 13.398438 19.039062 C 13.476562 19.027344 13.554688 19.023438 13.636719 19 C 14.269531 18.871094 14.910156 18.597656 15.535156 18.183594 C 16.164062 17.78125 16.785156 17.261719 17.414062 16.6875 C 18.050781 16.101562 18.695312 15.5 19.355469 14.867188 C 20.015625 14.230469 20.695312 13.585938 21.410156 12.9375 C 22.121094 12.289062 22.871094 11.644531 23.671875 11.03125 C 25.265625 9.800781 27.085938 8.675781 29.164062 7.984375 C 30.210938 7.652344 31.277344 7.433594 32.441406 7.375 L 32.8125 7.363281 L 32.996094 7.355469 L 33.066406 7.355469 C 33.0625 7.355469 33.171875 7.351562 33.136719 7.355469 L 33.246094 7.359375 C 33.535156 7.378906 33.824219 7.386719 34.113281 7.421875 C 34.398438 7.46875 34.683594 7.511719 34.964844 7.566406 C 35.246094 7.640625 35.523438 7.71875 35.796875 7.796875 C 37.988281 8.511719 39.765625 10.128906 40.691406 12.039062 C 40.917969 12.515625 41.113281 13.007812 41.242188 13.507812 C 41.273438 13.636719 41.320312 13.757812 41.339844 13.882812 L 41.40625 14.261719 C 41.425781 14.390625 41.445312 14.515625 41.46875 14.640625 C 41.480469 14.773438 41.488281 14.910156 41.496094 15.042969 C 41.507812 15.304688 41.53125 15.601562 41.511719 15.792969 L 41.492188 16.117188 L 41.484375 16.277344 L 41.480469 16.359375 C 41.476562 16.476562 41.476562 16.402344 41.476562 16.4375 L 41.472656 16.460938 L 41.464844 16.503906 C 41.425781 16.746094 41.398438 16.988281 41.347656 17.226562 C 41.289062 17.460938 41.230469 17.695312 41.167969 17.921875 C 40.882812 18.832031 40.441406 19.660156 39.898438 20.359375 C 39.355469 21.0625 38.722656 21.648438 38.046875 22.105469 C 37.371094 22.558594 36.664062 22.90625 35.957031 23.113281 C 35.785156 23.175781 35.605469 23.214844 35.433594 23.253906 C 35.257812 23.292969 35.09375 23.34375 34.910156 23.363281 C 34.734375 23.386719 34.558594 23.410156 34.386719 23.433594 C 34.21875 23.453125 34.074219 23.449219 33.921875 23.457031 C 32.617188 23.507812 31.527344 23.21875 30.703125 22.867188 C 29.878906 22.515625 29.320312 22.09375 28.960938 21.800781 C 28.78125 21.652344 28.648438 21.53125 28.566406 21.445312 C 28.480469 21.363281 28.4375 21.320312 28.4375 21.320312 " clip-rule="nonzero"/></clipPath><clipPath id="87c2bc8d94"><path d="M 49.082031 12.191406 L 18.210938 -7.601562 L 0.6875 18.667969 L 31.558594 38.460938 Z M 49.082031 12.191406 " clip-rule="nonzero"/></clipPath><radialGradient gradientTransform="matrix(-0.552726, 0.828597, -0.845169, -0.541888, 28.625496, 1.946081)" gradientUnits="userSpaceOnUse" r="30.410325" cx="0" id="8bb1774707" cy="0" fx="0" fy="0"><stop stop-opacity="1" stop-color="rgb(0.193787%, 67.799377%, 93.699646%)" offset="0"/><stop stop-opacity="1" stop-color="rgb(0.393677%, 67.658997%, 93.513489%)" offset="0.0078125"/><stop stop-opacity="1" stop-color="rgb(0.39978%, 67.50946%, 93.313599%)" offset="0.0117188"/><stop stop-opacity="1" stop-color="rgb(0.39978%, 67.498779%, 93.299866%)" offset="0.015625"/><stop stop-opacity="1" stop-color="rgb(0.59967%, 67.498779%, 93.299866%)" offset="0.0195312"/><stop stop-opacity="1" stop-color="rgb(0.799561%, 67.481995%, 93.299866%)" offset="0.0234375"/><stop stop-opacity="1" stop-color="rgb(0.799561%, 67.282104%, 93.286133%)" offset="0.0273438"/><stop stop-opacity="1" stop-color="rgb(0.80719%, 67.098999%, 93.086243%)" offset="0.03125"/><stop stop-opacity="1" stop-color="rgb(1.00708%, 67.098999%, 92.89856%)" offset="0.0351562"/><stop stop-opacity="1" stop-color="rgb(1.199341%, 66.90979%, 92.89856%)" offset="0.046875"/><stop stop-opacity="1" stop-color="rgb(1.199341%, 66.7099%, 92.89856%)" offset="0.0507812"/><stop stop-opacity="1" stop-color="rgb(1.199341%, 66.699219%, 92.718506%)" offset="0.0546875"/><stop stop-opacity="1" stop-color="rgb(1.373291%, 66.699219%, 92.518616%)" offset="0.0585938"/><stop stop-opacity="1" stop-color="rgb(1.573181%, 66.677856%, 92.498779%)" offset="0.0625"/><stop stop-opacity="1" stop-color="rgb(1.61438%, 66.477966%, 92.498779%)" offset="0.0664062"/><stop stop-opacity="1" stop-color="rgb(1.81427%, 66.299438%, 92.349243%)" offset="0.0703125"/><stop stop-opacity="1" stop-color="rgb(1.998901%, 66.299438%, 92.199707%)" offset="0.0820312"/><stop stop-opacity="1" stop-color="rgb(2.191162%, 66.107178%, 92.199707%)" offset="0.0859375"/><stop stop-opacity="1" stop-color="rgb(2.391052%, 65.907288%, 92.021179%)" offset="0.0898438"/><stop stop-opacity="1" stop-color="rgb(2.415466%, 65.875244%, 91.821289%)" offset="0.101562"/><stop stop-opacity="1" stop-color="rgb(2.566528%, 65.675354%, 91.799927%)" offset="0.105469"/><stop stop-opacity="1" stop-color="rgb(2.703857%, 65.499878%, 91.793823%)" offset="0.117188"/><stop stop-opacity="1" stop-color="rgb(2.903748%, 65.499878%, 91.593933%)" offset="0.121094"/><stop stop-opacity="1" stop-color="rgb(3.09906%, 65.304565%, 91.398621%)" offset="0.125"/><stop stop-opacity="1" stop-color="rgb(3.09906%, 65.103149%, 91.398621%)" offset="0.128906"/><stop stop-opacity="1" stop-color="rgb(3.09906%, 65.098572%, 91.398621%)" offset="0.140625"/><stop stop-opacity="1" stop-color="rgb(3.29895%, 64.898682%, 91.19873%)" offset="0.144531"/><stop stop-opacity="1" stop-color="rgb(3.49884%, 64.698792%, 90.99884%)" offset="0.148438"/><stop stop-opacity="1" stop-color="rgb(3.511047%, 64.698792%, 90.99884%)" offset="0.152344"/><stop stop-opacity="1" stop-color="rgb(3.710938%, 64.698792%, 90.99884%)" offset="0.15625"/><stop stop-opacity="1" stop-color="rgb(3.898621%, 64.69574%, 90.99884%)" offset="0.160156"/><stop stop-opacity="1" stop-color="rgb(3.898621%, 64.497375%, 90.99884%)" offset="0.164062"/><stop stop-opacity="1" stop-color="rgb(4.092407%, 64.300537%, 90.805054%)" offset="0.167969"/><stop stop-opacity="1" stop-color="rgb(4.292297%, 64.299011%, 90.605164%)" offset="0.171875"/><stop stop-opacity="1" stop-color="rgb(4.299927%, 64.123535%, 90.59906%)" offset="0.183594"/><stop stop-opacity="1" stop-color="rgb(4.319763%, 63.923645%, 90.577698%)" offset="0.1875"/><stop stop-opacity="1" stop-color="rgb(4.525757%, 63.893127%, 90.377808%)" offset="0.191406"/><stop stop-opacity="1" stop-color="rgb(4.905701%, 63.693237%, 90.19928%)" offset="0.203125"/><stop stop-opacity="1" stop-color="rgb(5.28717%, 63.499451%, 90.011597%)" offset="0.214844"/><stop stop-opacity="1" stop-color="rgb(5.487061%, 63.499451%, 89.811707%)" offset="0.21875"/><stop stop-opacity="1" stop-color="rgb(5.499268%, 63.320923%, 89.7995%)" offset="0.222656"/><stop stop-opacity="1" stop-color="rgb(5.499268%, 63.121033%, 89.7995%)" offset="0.226562"/><stop stop-opacity="1" stop-color="rgb(5.499268%, 63.09967%, 89.779663%)" offset="0.230469"/><stop stop-opacity="1" stop-color="rgb(5.513%, 63.084412%, 89.579773%)" offset="0.234375"/><stop stop-opacity="1" stop-color="rgb(5.712891%, 62.884521%, 89.399719%)" offset="0.238281"/><stop stop-opacity="1" stop-color="rgb(6.09436%, 62.69989%, 89.399719%)" offset="0.25"/><stop stop-opacity="1" stop-color="rgb(6.29425%, 62.554932%, 89.205933%)" offset="0.253906"/><stop stop-opacity="1" stop-color="rgb(6.298828%, 62.40387%, 89.006042%)" offset="0.261719"/><stop stop-opacity="1" stop-color="rgb(6.396484%, 62.30011%, 88.999939%)" offset="0.269531"/><stop stop-opacity="1" stop-color="rgb(6.596375%, 62.10022%, 88.893127%)" offset="0.273438"/><stop stop-opacity="1" stop-color="rgb(6.800842%, 61.999512%, 88.691711%)" offset="0.28125"/><stop stop-opacity="1" stop-color="rgb(7.000732%, 61.901855%, 88.598633%)" offset="0.289062"/><stop stop-opacity="1" stop-color="rgb(7.191467%, 61.701965%, 88.50708%)" offset="0.296875"/><stop stop-opacity="1" stop-color="rgb(7.391357%, 61.499023%, 88.30719%)" offset="0.304688"/><stop stop-opacity="1" stop-color="rgb(7.580566%, 61.299133%, 88.198853%)" offset="0.3125"/><stop stop-opacity="1" stop-color="rgb(7.730103%, 61.199951%, 88.095093%)" offset="0.320312"/><stop stop-opacity="1" stop-color="rgb(7.798767%, 61.196899%, 87.895203%)" offset="0.328125"/><stop stop-opacity="1" stop-color="rgb(7.798767%, 61.000061%, 87.799072%)" offset="0.332031"/><stop stop-opacity="1" stop-color="rgb(7.798767%, 60.614014%, 87.658691%)" offset="0.335938"/><stop stop-opacity="1" stop-color="rgb(7.981873%, 60.411072%, 87.509155%)" offset="0.34375"/><stop stop-opacity="1" stop-color="rgb(8.280945%, 60.299683%, 87.5%)" offset="0.347656"/><stop stop-opacity="1" stop-color="rgb(8.49762%, 60.099792%, 87.391663%)" offset="0.355469"/><stop stop-opacity="1" stop-color="rgb(8.702087%, 59.999084%, 87.191772%)" offset="0.363281"/><stop stop-opacity="1" stop-color="rgb(8.901978%, 59.901428%, 87.098694%)" offset="0.371094"/><stop stop-opacity="1" stop-color="rgb(8.999634%, 59.701538%, 87.005615%)" offset="0.378906"/><stop stop-opacity="1" stop-color="rgb(9.100342%, 59.498596%, 86.805725%)" offset="0.386719"/><stop stop-opacity="1" stop-color="rgb(9.300232%, 59.298706%, 86.698914%)" offset="0.394531"/><stop stop-opacity="1" stop-color="rgb(9.503174%, 59.095764%, 86.595154%)" offset="0.402344"/><stop stop-opacity="1" stop-color="rgb(9.703064%, 58.80127%, 86.300659%)" offset="0.410156"/><stop stop-opacity="1" stop-color="rgb(9.889221%, 58.505249%, 86.004639%)" offset="0.425781"/><stop stop-opacity="1" stop-color="rgb(10.076904%, 58.399963%, 85.899353%)" offset="0.433594"/><stop stop-opacity="1" stop-color="rgb(10.284424%, 58.399963%, 85.899353%)" offset="0.4375"/><stop stop-opacity="1" stop-color="rgb(10.496521%, 58.293152%, 85.794067%)" offset="0.441406"/><stop stop-opacity="1" stop-color="rgb(10.699463%, 58.093262%, 85.594177%)" offset="0.449219"/><stop stop-opacity="1" stop-color="rgb(10.899353%, 57.902527%, 85.499573%)" offset="0.457031"/><stop stop-opacity="1" stop-color="rgb(10.998535%, 57.702637%, 85.40802%)" offset="0.464844"/><stop stop-opacity="1" stop-color="rgb(11.097717%, 57.524109%, 85.20813%)" offset="0.472656"/><stop stop-opacity="1" stop-color="rgb(11.297607%, 57.272339%, 84.996033%)" offset="0.480469"/><stop stop-opacity="1" stop-color="rgb(11.497498%, 56.996155%, 84.796143%)" offset="0.496094"/><stop stop-opacity="1" stop-color="rgb(11.697388%, 56.716919%, 84.698486%)" offset="0.503906"/><stop stop-opacity="1" stop-color="rgb(11.975098%, 56.517029%, 84.521484%)" offset="0.515625"/><stop stop-opacity="1" stop-color="rgb(12.184143%, 56.486511%, 84.321594%)" offset="0.519531"/><stop stop-opacity="1" stop-color="rgb(12.358093%, 56.286621%, 84.298706%)" offset="0.53125"/><stop stop-opacity="1" stop-color="rgb(12.5%, 56.098938%, 84.295654%)" offset="0.535156"/><stop stop-opacity="1" stop-color="rgb(12.5%, 56.098938%, 84.09729%)" offset="0.539062"/><stop stop-opacity="1" stop-color="rgb(12.5%, 56.098938%, 83.900452%)" offset="0.542969"/><stop stop-opacity="1" stop-color="rgb(12.5%, 55.909729%, 83.898926%)" offset="0.546875"/><stop stop-opacity="1" stop-color="rgb(12.5%, 55.709839%, 83.898926%)" offset="0.550781"/><stop stop-opacity="1" stop-color="rgb(12.678528%, 55.699158%, 83.898926%)" offset="0.554688"/><stop stop-opacity="1" stop-color="rgb(12.878418%, 55.699158%, 83.898926%)" offset="0.558594"/><stop stop-opacity="1" stop-color="rgb(12.919617%, 55.677795%, 83.699036%)" offset="0.5625"/><stop stop-opacity="1" stop-color="rgb(13.119507%, 55.471802%, 83.499146%)" offset="0.566406"/><stop stop-opacity="1" stop-color="rgb(13.299561%, 55.093384%, 83.49762%)" offset="0.578125"/><stop stop-opacity="1" stop-color="rgb(13.299561%, 54.899597%, 83.300781%)" offset="0.582031"/><stop stop-opacity="1" stop-color="rgb(13.299561%, 54.899597%, 83.102417%)" offset="0.585938"/><stop stop-opacity="1" stop-color="rgb(13.487244%, 54.899597%, 83.099365%)" offset="0.589844"/><stop stop-opacity="1" stop-color="rgb(13.687134%, 54.899597%, 83.099365%)" offset="0.59375"/><stop stop-opacity="1" stop-color="rgb(13.699341%, 54.721069%, 83.099365%)" offset="0.597656"/><stop stop-opacity="1" stop-color="rgb(13.722229%, 54.521179%, 83.074951%)" offset="0.601562"/><stop stop-opacity="1" stop-color="rgb(13.922119%, 54.499817%, 82.875061%)" offset="0.605469"/><stop stop-opacity="1" stop-color="rgb(14.099121%, 54.484558%, 82.699585%)" offset="0.609375"/><stop stop-opacity="1" stop-color="rgb(14.099121%, 54.284668%, 82.699585%)" offset="0.613281"/><stop stop-opacity="1" stop-color="rgb(14.103699%, 54.098511%, 82.699585%)" offset="0.617188"/><stop stop-opacity="1" stop-color="rgb(14.303589%, 54.003906%, 82.548523%)" offset="0.621094"/><stop stop-opacity="1" stop-color="rgb(14.588928%, 53.804016%, 82.398987%)" offset="0.632812"/><stop stop-opacity="1" stop-color="rgb(14.788818%, 53.601074%, 82.299805%)" offset="0.640625"/><stop stop-opacity="1" stop-color="rgb(15.005493%, 53.401184%, 82.099915%)" offset="0.648438"/><stop stop-opacity="1" stop-color="rgb(15.205383%, 53.196716%, 81.999207%)" offset="0.65625"/><stop stop-opacity="1" stop-color="rgb(15.299988%, 52.996826%, 81.90155%)" offset="0.664062"/><stop stop-opacity="1" stop-color="rgb(15.391541%, 52.806091%, 81.70166%)" offset="0.671875"/><stop stop-opacity="1" stop-color="rgb(15.591431%, 52.606201%, 81.599426%)" offset="0.679688"/><stop stop-opacity="1" stop-color="rgb(15.80658%, 52.418518%, 81.491089%)" offset="0.6875"/><stop stop-opacity="1" stop-color="rgb(16.00647%, 52.1698%, 81.193542%)" offset="0.695312"/><stop stop-opacity="1" stop-color="rgb(16.192627%, 51.899719%, 80.900574%)" offset="0.710938"/><stop stop-opacity="1" stop-color="rgb(16.392517%, 51.696777%, 80.799866%)" offset="0.71875"/><stop stop-opacity="1" stop-color="rgb(16.607666%, 51.496887%, 80.690002%)" offset="0.726562"/><stop stop-opacity="1" stop-color="rgb(16.807556%, 51.293945%, 80.488586%)" offset="0.734375"/><stop stop-opacity="1" stop-color="rgb(16.998291%, 51.094055%, 80.39856%)" offset="0.742188"/><stop stop-opacity="1" stop-color="rgb(17.198181%, 50.999451%, 80.39856%)" offset="0.75"/><stop stop-opacity="1" stop-color="rgb(17.298889%, 50.813293%, 80.212402%)" offset="0.757812"/><stop stop-opacity="1" stop-color="rgb(17.448425%, 50.590515%, 80.012512%)" offset="0.761719"/><stop stop-opacity="1" stop-color="rgb(17.599487%, 50.376892%, 79.998779%)" offset="0.773438"/><stop stop-opacity="1" stop-color="rgb(17.599487%, 50.19989%, 79.986572%)" offset="0.777344"/><stop stop-opacity="1" stop-color="rgb(17.599487%, 50.19989%, 79.786682%)" offset="0.78125"/><stop stop-opacity="1" stop-color="rgb(17.599487%, 50.195312%, 79.598999%)" offset="0.785156"/><stop stop-opacity="1" stop-color="rgb(17.599487%, 49.996948%, 79.598999%)" offset="0.789062"/><stop stop-opacity="1" stop-color="rgb(17.793274%, 49.80011%, 79.598999%)" offset="0.792969"/><stop stop-opacity="1" stop-color="rgb(17.993164%, 49.798584%, 79.598999%)" offset="0.796875"/><stop stop-opacity="1" stop-color="rgb(17.999268%, 49.798584%, 79.414368%)" offset="0.800781"/><stop stop-opacity="1" stop-color="rgb(17.999268%, 49.61853%, 79.214478%)" offset="0.804688"/><stop stop-opacity="1" stop-color="rgb(18.173218%, 49.41864%, 79.199219%)" offset="0.808594"/><stop stop-opacity="1" stop-color="rgb(18.383789%, 49.388123%, 79.188538%)" offset="0.8125"/><stop stop-opacity="1" stop-color="rgb(18.608093%, 49.188232%, 78.988647%)" offset="0.816406"/><stop stop-opacity="1" stop-color="rgb(18.798828%, 48.997498%, 78.799438%)" offset="0.824219"/><stop stop-opacity="1" stop-color="rgb(18.798828%, 48.802185%, 78.799438%)" offset="0.832031"/><stop stop-opacity="1" stop-color="rgb(18.989563%, 48.602295%, 78.607178%)" offset="0.839844"/><stop stop-opacity="1" stop-color="rgb(19.189453%, 48.497009%, 78.407288%)" offset="0.847656"/><stop stop-opacity="1" stop-color="rgb(19.198608%, 48.297119%, 78.399658%)" offset="0.851562"/><stop stop-opacity="1" stop-color="rgb(19.303894%, 48.094177%, 78.294373%)" offset="0.859375"/><stop stop-opacity="1" stop-color="rgb(19.503784%, 47.894287%, 78.094482%)" offset="0.867188"/><stop stop-opacity="1" stop-color="rgb(19.784546%, 47.659302%, 77.999878%)" offset="0.882812"/><stop stop-opacity="1" stop-color="rgb(19.984436%, 47.509766%, 77.818298%)" offset="0.886719"/><stop stop-opacity="1" stop-color="rgb(19.999695%, 47.499084%, 77.616882%)" offset="0.890625"/><stop stop-opacity="1" stop-color="rgb(20.021057%, 47.476196%, 77.598572%)" offset="0.894531"/><stop stop-opacity="1" stop-color="rgb(20.220947%, 47.273254%, 77.449036%)" offset="0.898438"/><stop stop-opacity="1" stop-color="rgb(20.399475%, 46.896362%, 77.2995%)" offset="0.910156"/><stop stop-opacity="1" stop-color="rgb(20.593262%, 46.699524%, 77.2995%)" offset="0.917969"/><stop stop-opacity="1" stop-color="rgb(20.793152%, 46.508789%, 77.108765%)" offset="0.925781"/><stop stop-opacity="1" stop-color="rgb(20.799255%, 46.289062%, 76.908875%)" offset="0.933594"/><stop stop-opacity="1" stop-color="rgb(20.799255%, 46.078491%, 76.899719%)" offset="0.941406"/><stop stop-opacity="1" stop-color="rgb(20.809937%, 45.899963%, 76.899719%)" offset="0.945312"/><stop stop-opacity="1" stop-color="rgb(21.009827%, 45.892334%, 76.89209%)" offset="0.949219"/><stop stop-opacity="1" stop-color="rgb(21.199036%, 45.692444%, 76.6922%)" offset="0.953125"/><stop stop-opacity="1" stop-color="rgb(21.395874%, 45.498657%, 76.499939%)" offset="0.957031"/><stop stop-opacity="1" stop-color="rgb(21.594238%, 45.307922%, 76.499939%)" offset="0.964844"/><stop stop-opacity="1" stop-color="rgb(21.598816%, 45.108032%, 76.321411%)" offset="0.972656"/><stop stop-opacity="1" stop-color="rgb(21.798706%, 45.08667%, 76.119995%)" offset="0.976562"/><stop stop-opacity="1" stop-color="rgb(21.998596%, 44.88678%, 76.098633%)" offset="0.980469"/><stop stop-opacity="1" stop-color="rgb(21.998596%, 44.699097%, 76.094055%)" offset="0.988281"/><stop stop-opacity="1" stop-color="rgb(21.998596%, 44.699097%, 75.894165%)" offset="0.992188"/><stop stop-opacity="1" stop-color="rgb(21.998596%, 44.699097%, 75.698853%)" offset="1"/></radialGradient></defs><g clip-path="url(#4903db918c)"><g clip-path="url(#31ef06efe9)"><g clip-path="url(#a087f5a033)"><g clip-path="url(#40333517d2)"><path fill="url(#c110628d96)" d="M 48.273438 9.445312 L 14.605469 -12.140625 L -5.617188 18.175781 L 28.050781 39.761719 Z M 48.273438 9.445312 " fill-rule="nonzero"/></g></g></g></g><g clip-path="url(#76eecfb10d)"><g clip-path="url(#3dfd06d535)"><g clip-path="url(#cf0686ebfc)"><g clip-path="url(#87c2bc8d94)"><path fill="url(#8bb1774707)" d="M 49.0625 12.183594 L 18.222656 -7.589844 L 0.722656 18.644531 L 31.5625 38.417969 Z M 49.0625 12.183594 " fill-rule="nonzero"/></g></g></g></g><g fill="#2c3892" fill-opacity="1"><g transform="translate(45.030224, 21.117259)"><g><path d="M 6.503906 0.277344 C 9.796875 0.277344 11.820312 -1.289062 11.820312 -3.90625 C 11.820312 -6.109375 10.371094 -7.417969 6.921875 -8.230469 C 4.800781 -8.726562 4.066406 -9.261719 4.066406 -10.113281 C 4.066406 -11.027344 4.878906 -11.582031 6.207031 -11.582031 C 7.65625 -11.582031 8.527344 -10.828125 8.527344 -9.578125 L 11.5625 -9.578125 C 11.5625 -12.375 9.460938 -14.160156 6.167969 -14.160156 C 2.976562 -14.160156 0.992188 -12.59375 0.992188 -10.054688 C 0.992188 -7.792969 2.519531 -6.445312 5.769531 -5.75 C 7.734375 -5.335938 8.625 -4.757812 8.625 -3.789062 C 8.625 -2.855469 7.792969 -2.320312 6.484375 -2.320312 C 4.957031 -2.320312 3.964844 -3.09375 3.964844 -4.421875 L 0.871094 -4.421875 C 0.871094 -1.546875 3.015625 0.277344 6.503906 0.277344 Z M 6.503906 0.277344 "/></g></g></g><g fill="#2c3892" fill-opacity="1"><g transform="translate(57.540649, 21.117259)"><g><path d="M 1.664062 0 L 4.800781 0 L 4.800781 -8.367188 L 8.171875 -3.429688 L 10.351562 -3.429688 L 13.722656 -8.347656 L 13.722656 0 L 16.855469 0 L 16.855469 -13.882812 L 14.199219 -13.882812 L 9.28125 -6.683594 L 4.34375 -13.882812 L 1.664062 -13.882812 Z M 1.664062 0 "/></g></g></g><g fill="#2c3892" fill-opacity="1"><g transform="translate(76.065146, 20.753587)"><g><path d="M 1.667969 0 L 4.820312 0 L 4.820312 -13.886719 L 1.667969 -13.886719 Z M 1.667969 0 "/></g></g></g><g fill="#2c3892" fill-opacity="1"><g transform="translate(82.35758, 20.753587)"><g><path d="M 2.023438 0 L 3.769531 0 L 3.769531 -13.886719 L 2.023438 -13.886719 Z M 2.023438 0 "/></g></g></g><g fill="#2c3892" fill-opacity="1"><g transform="translate(87.950726, 20.753587)"><g><path d="M 5.375 0 L 7.121094 0 L 7.121094 -12.21875 L 11.804688 -12.21875 L 11.804688 -13.886719 L 0.675781 -13.886719 L 0.675781 -12.21875 L 5.375 -12.21875 Z M 5.375 0 "/></g></g></g></svg>